<?xml version="1.0" encoding="UTF-8" standalone="no"?>
<!-- Created with Inkscape (http://www.inkscape.org/) -->

<svg
   width="32mm"
   height="32mm"
   viewBox="0 0 32 32"
   version="1.1"
   id="svg1"
   xml:space="preserve"
   inkscape:version="1.1.2 (0a00cf5339, 2022-02-04)"
   sodipodi:docname="sfg-16.svg"
   xmlns:inkscape="http://www.inkscape.org/namespaces/inkscape"
   xmlns:sodipodi="http://sodipodi.sourceforge.net/DTD/sodipodi-0.dtd"
   xmlns="http://www.w3.org/2000/svg"
   xmlns:svg="http://www.w3.org/2000/svg"><sodipodi:namedview
     id="namedview1"
     pagecolor="#ffffff"
     bordercolor="#000000"
     borderopacity="0.25"
     inkscape:showpageshadow="2"
     inkscape:pageopacity="0.0"
     inkscape:pagecheckerboard="0"
     inkscape:deskcolor="#d1d1d1"
     inkscape:document-units="mm"
     inkscape:zoom="2.3011165"
     inkscape:cx="1.9555724"
     inkscape:cy="127.98135"
     inkscape:window-width="1858"
     inkscape:window-height="1016"
     inkscape:window-x="0"
     inkscape:window-y="0"
     inkscape:window-maximized="1"
     inkscape:current-layer="layer1"
     inkscape:pageshadow="2"
     showgrid="false"
     fit-margin-top="0"
     fit-margin-left="0"
     fit-margin-right="0"
     fit-margin-bottom="0" /><defs
     id="defs1"><rect
       x="403.51077"
       y="263.72293"
       width="314.1991"
       height="72.28434"
       id="rect116504" /><rect
       x="542.67859"
       y="291.90744"
       width="42.126045"
       height="62.546314"
       id="rect96014" /><rect
       x="434.28906"
       y="360.52295"
       width="71.900391"
       height="35.957306"
       id="rect54172" /><rect
       x="411.31482"
       y="287.42807"
       width="263.77982"
       height="118.83572"
       id="rect24234" /></defs><g
     inkscape:label="Capa 1"
     inkscape:groupmode="layer"
     id="layer1"
     transform="translate(79.159672,0.43892182)"><text
       xml:space="preserve"
       transform="scale(0.26458333)"
       id="text54170"
       style="font-style:normal;font-variant:normal;font-weight:normal;font-stretch:normal;font-size:16px;line-height:0;font-family:sans-serif;-inkscape-font-specification:sans-serif;text-align:center;letter-spacing:50px;word-spacing:0px;white-space:pre;shape-inside:url(#rect54172);fill:#000000;stroke:#000000;stroke-width:7.55906;stroke-linecap:round" /><text
       xml:space="preserve"
       transform="scale(0.26458333)"
       id="text96012"
       style="font-style:normal;font-variant:normal;font-weight:normal;font-stretch:normal;font-size:16px;line-height:0;font-family:sans-serif;-inkscape-font-specification:sans-serif;text-align:center;letter-spacing:50px;word-spacing:0px;white-space:pre;shape-inside:url(#rect96014);fill:#ff0000;stroke:#ffff00;stroke-width:7.55906;stroke-linecap:round" /><g
       id="g142790"
       transform="matrix(0.55583006,0,0,0.55583006,-167.52484,-24.775956)"
       inkscape:export-filename="/home/raul/Escritorio/sfg-16.png"
       inkscape:export-xdpi="96"
       inkscape:export-ydpi="96"><g
         id="g8-8-8-4-1-7"
         transform="matrix(0.02014203,0,0,0.01954298,175.16952,61.043267)"><path
           style="fill:#5aba63"
           d="m 252.899,512.002 c -4.504,0 -8.313,-3.471 -8.643,-8.036 -7.706,-104.222 3.662,-160.516 11.186,-197.762 8.669,-42.947 12.635,-62.551 -18.276,-109.698 -2.629,-4.009 -1.51,-9.39 2.499,-12.019 4.009,-2.629 9.39,-1.519 12.019,2.499 34.816,53.118 29.826,77.815 20.766,122.654 -7.775,38.487 -18.415,91.205 -10.891,193.041 0.356,4.782 -3.237,8.947 -8.01,9.294 -0.216,0.019 -0.433,0.027 -0.65,0.027"
           id="path1-79-9-8-1-97" /><g
           id="g5-2-7-8-9-22"><path
             style="fill:#91cf96"
             d="m 252.908,512.002 c 0,-81.651 -45.481,-234.305 -114.35,-234.305 -48.136,139.49 20.359,234.305 114.35,234.305"
             id="path2-0-3-8-0-1" /><path
             style="fill:#91cf96"
             d="m 252.908,512.002 c 0,-81.651 45.481,-234.305 114.35,-234.305 48.136,139.49 -20.359,234.305 -114.35,234.305"
             id="path3-1-23-6-9-5-6" /><path
             style="fill:#91cf96"
             d="m 270.264,277.697 c -1.927,0 -3.81,-0.642 -5.346,-1.84 -2.013,-1.579 -3.237,-3.966 -3.332,-6.517 -2.994,-81.868 59.184,-115.538 118.376,-119.747 2.3,-0.148 4.565,0.599 6.3,2.1 1.736,1.51 2.803,3.645 2.968,5.944 0.876,12.314 -16.419,98.807 -117.187,119.877 -0.59,0.122 -1.189,0.183 -1.779,0.183"
             id="path4-8-7-1-7-67-30" /><path
             style="fill:#91cf96"
             d="m 244.332,200.401 c -0.963,0 -1.927,-0.165 -2.846,-0.495 -65.38,-23.535 -89.183,-69.068 -97.644,-103.12 -10.865,-43.728 -0.946,-85.001 7.194,-93.948 2.291,-2.517 5.84,-3.463 9.068,-2.421 18.701,6.014 115.252,67.098 92.898,192.738 -0.061,0.347 -0.148,0.694 -0.252,1.033 -0.694,2.265 -2.308,4.209 -4.434,5.268 -1.242,0.615 -2.613,0.945 -3.984,0.945"
             id="path5-7-5-2-7-7-2" /></g><g
           id="g7-9-9-6-4-15"><path
             style="fill:#5aba63"
             d="m 270.264,277.697 c -2.187,0 -4.382,-0.824 -6.075,-2.482 -3.419,-3.35 -3.48,-8.843 -0.121,-12.271 l 53.404,-54.524 c 3.358,-3.428 8.852,-3.48 12.271,-0.13 3.428,3.35 3.489,8.843 0.13,12.271 l -53.413,54.532 c -1.692,1.736 -3.948,2.604 -6.196,2.604"
             id="path6-9-2-3-4-0-65" /><path
             style="fill:#5aba63"
             d="m 244.467,200.311 c -3.15,0 -6.187,-1.718 -7.732,-4.712 l -39.224,-76.436 c -2.196,-4.261 -0.503,-9.494 3.758,-11.681 4.261,-2.204 9.494,-0.503 11.681,3.758 l 39.233,76.427 c 2.187,4.27 0.503,9.502 -3.758,11.689 -1.268,0.652 -2.63,0.955 -3.958,0.955"
             id="path7-2-2-1-3-6-0" /></g></g><g
         id="g8-8-9-0-4-03"
         transform="matrix(0.02014203,0,0,0.01954298,160.29227,47.570809)"><path
           style="fill:#5aba63"
           d="m 252.899,512.002 c -4.504,0 -8.313,-3.471 -8.643,-8.036 -7.706,-104.222 3.662,-160.516 11.186,-197.762 8.669,-42.947 12.635,-62.551 -18.276,-109.698 -2.629,-4.009 -1.51,-9.39 2.499,-12.019 4.009,-2.629 9.39,-1.519 12.019,2.499 34.816,53.118 29.826,77.815 20.766,122.654 -7.775,38.487 -18.415,91.205 -10.891,193.041 0.356,4.782 -3.237,8.947 -8.01,9.294 -0.216,0.019 -0.433,0.027 -0.65,0.027"
           id="path1-79-4-3-7-4" /><g
           id="g5-2-78-0-4-6"><path
             style="fill:#91cf96"
             d="m 252.908,512.002 c 0,-81.651 -45.481,-234.305 -114.35,-234.305 -48.136,139.49 20.359,234.305 114.35,234.305"
             id="path2-0-4-9-85-6" /><path
             style="fill:#91cf96"
             d="m 252.908,512.002 c 0,-81.651 45.481,-234.305 114.35,-234.305 48.136,139.49 -20.359,234.305 -114.35,234.305"
             id="path3-1-23-5-2-8-0" /><path
             style="fill:#91cf96"
             d="m 270.264,277.697 c -1.927,0 -3.81,-0.642 -5.346,-1.84 -2.013,-1.579 -3.237,-3.966 -3.332,-6.517 -2.994,-81.868 59.184,-115.538 118.376,-119.747 2.3,-0.148 4.565,0.599 6.3,2.1 1.736,1.51 2.803,3.645 2.968,5.944 0.876,12.314 -16.419,98.807 -117.187,119.877 -0.59,0.122 -1.189,0.183 -1.779,0.183"
             id="path4-8-7-0-5-26-2" /><path
             style="fill:#91cf96"
             d="m 244.332,200.401 c -0.963,0 -1.927,-0.165 -2.846,-0.495 -65.38,-23.535 -89.183,-69.068 -97.644,-103.12 -10.865,-43.728 -0.946,-85.001 7.194,-93.948 2.291,-2.517 5.84,-3.463 9.068,-2.421 18.701,6.014 115.252,67.098 92.898,192.738 -0.061,0.347 -0.148,0.694 -0.252,1.033 -0.694,2.265 -2.308,4.209 -4.434,5.268 -1.242,0.615 -2.613,0.945 -3.984,0.945"
             id="path5-7-5-3-4-0-5" /></g><g
           id="g7-9-6-0-6-8"><path
             style="fill:#5aba63"
             d="m 270.264,277.697 c -2.187,0 -4.382,-0.824 -6.075,-2.482 -3.419,-3.35 -3.48,-8.843 -0.121,-12.271 l 53.404,-54.524 c 3.358,-3.428 8.852,-3.48 12.271,-0.13 3.428,3.35 3.489,8.843 0.13,12.271 l -53.413,54.532 c -1.692,1.736 -3.948,2.604 -6.196,2.604"
             id="path6-9-2-1-5-64-9" /><path
             style="fill:#5aba63"
             d="m 244.467,200.311 c -3.15,0 -6.187,-1.718 -7.732,-4.712 l -39.224,-76.436 c -2.196,-4.261 -0.503,-9.494 3.758,-11.681 4.261,-2.204 9.494,-0.503 11.681,3.758 l 39.233,76.427 c 2.187,4.27 0.503,9.502 -3.758,11.689 -1.268,0.652 -2.63,0.955 -3.958,0.955"
             id="path7-2-2-0-9-6-5" /></g></g><g
         id="g8-8-9-0-0-2-0"
         transform="matrix(0.02014203,0,0,0.01954298,175.16952,47.570809)"><path
           style="fill:#5aba63"
           d="m 252.899,512.002 c -4.504,0 -8.313,-3.471 -8.643,-8.036 -7.706,-104.222 3.662,-160.516 11.186,-197.762 8.669,-42.947 12.635,-62.551 -18.276,-109.698 -2.629,-4.009 -1.51,-9.39 2.499,-12.019 4.009,-2.629 9.39,-1.519 12.019,2.499 34.816,53.118 29.826,77.815 20.766,122.654 -7.775,38.487 -18.415,91.205 -10.891,193.041 0.356,4.782 -3.237,8.947 -8.01,9.294 -0.216,0.019 -0.433,0.027 -0.65,0.027"
           id="path1-79-4-3-5-89-6" /><g
           id="g5-2-78-0-1-6-0"><path
             style="fill:#91cf96"
             d="m 252.908,512.002 c 0,-81.651 -45.481,-234.305 -114.35,-234.305 -48.136,139.49 20.359,234.305 114.35,234.305"
             id="path2-0-4-9-1-0-8" /><path
             style="fill:#91cf96"
             d="m 252.908,512.002 c 0,-81.651 45.481,-234.305 114.35,-234.305 48.136,139.49 -20.359,234.305 -114.35,234.305"
             id="path3-1-23-5-2-0-7-3" /><path
             style="fill:#91cf96"
             d="m 270.264,277.697 c -1.927,0 -3.81,-0.642 -5.346,-1.84 -2.013,-1.579 -3.237,-3.966 -3.332,-6.517 -2.994,-81.868 59.184,-115.538 118.376,-119.747 2.3,-0.148 4.565,0.599 6.3,2.1 1.736,1.51 2.803,3.645 2.968,5.944 0.876,12.314 -16.419,98.807 -117.187,119.877 -0.59,0.122 -1.189,0.183 -1.779,0.183"
             id="path4-8-7-0-5-8-0-7" /><path
             style="fill:#91cf96"
             d="m 244.332,200.401 c -0.963,0 -1.927,-0.165 -2.846,-0.495 -65.38,-23.535 -89.183,-69.068 -97.644,-103.12 -10.865,-43.728 -0.946,-85.001 7.194,-93.948 2.291,-2.517 5.84,-3.463 9.068,-2.421 18.701,6.014 115.252,67.098 92.898,192.738 -0.061,0.347 -0.148,0.694 -0.252,1.033 -0.694,2.265 -2.308,4.209 -4.434,5.268 -1.242,0.615 -2.613,0.945 -3.984,0.945"
             id="path5-7-5-3-4-5-1-8" /></g><g
           id="g7-9-6-0-0-0-2"><path
             style="fill:#5aba63"
             d="m 270.264,277.697 c -2.187,0 -4.382,-0.824 -6.075,-2.482 -3.419,-3.35 -3.48,-8.843 -0.121,-12.271 l 53.404,-54.524 c 3.358,-3.428 8.852,-3.48 12.271,-0.13 3.428,3.35 3.489,8.843 0.13,12.271 l -53.413,54.532 c -1.692,1.736 -3.948,2.604 -6.196,2.604"
             id="path6-9-2-1-5-6-1-1" /><path
             style="fill:#5aba63"
             d="m 244.467,200.311 c -3.15,0 -6.187,-1.718 -7.732,-4.712 l -39.224,-76.436 c -2.196,-4.261 -0.503,-9.494 3.758,-11.681 4.261,-2.204 9.494,-0.503 11.681,3.758 l 39.233,76.427 c 2.187,4.27 0.503,9.502 -3.758,11.689 -1.268,0.652 -2.63,0.955 -3.958,0.955"
             id="path7-2-2-0-9-4-37-0" /></g></g><g
         id="g8-8-9-0-6-7-5"
         transform="matrix(0.02014203,0,0,0.01954298,160.29227,61.043267)"><path
           style="fill:#5aba63"
           d="m 252.899,512.002 c -4.504,0 -8.313,-3.471 -8.643,-8.036 -7.706,-104.222 3.662,-160.516 11.186,-197.762 8.669,-42.947 12.635,-62.551 -18.276,-109.698 -2.629,-4.009 -1.51,-9.39 2.499,-12.019 4.009,-2.629 9.39,-1.519 12.019,2.499 34.816,53.118 29.826,77.815 20.766,122.654 -7.775,38.487 -18.415,91.205 -10.891,193.041 0.356,4.782 -3.237,8.947 -8.01,9.294 -0.216,0.019 -0.433,0.027 -0.65,0.027"
           id="path1-79-4-3-2-2-85" /><g
           id="g5-2-78-0-5-6-5"><path
             style="fill:#91cf96"
             d="m 252.908,512.002 c 0,-81.651 -45.481,-234.305 -114.35,-234.305 -48.136,139.49 20.359,234.305 114.35,234.305"
             id="path2-0-4-9-8-4-0" /><path
             style="fill:#91cf96"
             d="m 252.908,512.002 c 0,-81.651 45.481,-234.305 114.35,-234.305 48.136,139.49 -20.359,234.305 -114.35,234.305"
             id="path3-1-23-5-2-6-5-7" /><path
             style="fill:#91cf96"
             d="m 270.264,277.697 c -1.927,0 -3.81,-0.642 -5.346,-1.84 -2.013,-1.579 -3.237,-3.966 -3.332,-6.517 -2.994,-81.868 59.184,-115.538 118.376,-119.747 2.3,-0.148 4.565,0.599 6.3,2.1 1.736,1.51 2.803,3.645 2.968,5.944 0.876,12.314 -16.419,98.807 -117.187,119.877 -0.59,0.122 -1.189,0.183 -1.779,0.183"
             id="path4-8-7-0-5-2-2-3" /><path
             style="fill:#91cf96"
             d="m 244.332,200.401 c -0.963,0 -1.927,-0.165 -2.846,-0.495 -65.38,-23.535 -89.183,-69.068 -97.644,-103.12 -10.865,-43.728 -0.946,-85.001 7.194,-93.948 2.291,-2.517 5.84,-3.463 9.068,-2.421 18.701,6.014 115.252,67.098 92.898,192.738 -0.061,0.347 -0.148,0.694 -0.252,1.033 -0.694,2.265 -2.308,4.209 -4.434,5.268 -1.242,0.615 -2.613,0.945 -3.984,0.945"
             id="path5-7-5-3-4-8-0-8" /></g><g
           id="g7-9-6-0-4-2-23"><path
             style="fill:#5aba63"
             d="m 270.264,277.697 c -2.187,0 -4.382,-0.824 -6.075,-2.482 -3.419,-3.35 -3.48,-8.843 -0.121,-12.271 l 53.404,-54.524 c 3.358,-3.428 8.852,-3.48 12.271,-0.13 3.428,3.35 3.489,8.843 0.13,12.271 l -53.413,54.532 c -1.692,1.736 -3.948,2.604 -6.196,2.604"
             id="path6-9-2-1-5-7-90-07" /><path
             style="fill:#5aba63"
             d="m 244.467,200.311 c -3.15,0 -6.187,-1.718 -7.732,-4.712 l -39.224,-76.436 c -2.196,-4.261 -0.503,-9.494 3.758,-11.681 4.261,-2.204 9.494,-0.503 11.681,3.758 l 39.233,76.427 c 2.187,4.27 0.503,9.502 -3.758,11.689 -1.268,0.652 -2.63,0.955 -3.958,0.955"
             id="path7-2-2-0-9-2-9-7" /></g></g><g
         id="g8-8-8-4-1-9-7"
         transform="matrix(0.02014203,0,0,0.01954298,204.92402,61.043267)"><path
           style="fill:#5aba63"
           d="m 252.899,512.002 c -4.504,0 -8.313,-3.471 -8.643,-8.036 -7.706,-104.222 3.662,-160.516 11.186,-197.762 8.669,-42.947 12.635,-62.551 -18.276,-109.698 -2.629,-4.009 -1.51,-9.39 2.499,-12.019 4.009,-2.629 9.39,-1.519 12.019,2.499 34.816,53.118 29.826,77.815 20.766,122.654 -7.775,38.487 -18.415,91.205 -10.891,193.041 0.356,4.782 -3.237,8.947 -8.01,9.294 -0.216,0.019 -0.433,0.027 -0.65,0.027"
           id="path1-79-9-8-1-9-6" /><g
           id="g5-2-7-8-9-3-9"><path
             style="fill:#91cf96"
             d="m 252.908,512.002 c 0,-81.651 -45.481,-234.305 -114.35,-234.305 -48.136,139.49 20.359,234.305 114.35,234.305"
             id="path2-0-3-8-0-2-1" /><path
             style="fill:#91cf96"
             d="m 252.908,512.002 c 0,-81.651 45.481,-234.305 114.35,-234.305 48.136,139.49 -20.359,234.305 -114.35,234.305"
             id="path3-1-23-6-9-5-4-1" /><path
             style="fill:#91cf96"
             d="m 270.264,277.697 c -1.927,0 -3.81,-0.642 -5.346,-1.84 -2.013,-1.579 -3.237,-3.966 -3.332,-6.517 -2.994,-81.868 59.184,-115.538 118.376,-119.747 2.3,-0.148 4.565,0.599 6.3,2.1 1.736,1.51 2.803,3.645 2.968,5.944 0.876,12.314 -16.419,98.807 -117.187,119.877 -0.59,0.122 -1.189,0.183 -1.779,0.183"
             id="path4-8-7-1-7-67-3-9" /><path
             style="fill:#91cf96"
             d="m 244.332,200.401 c -0.963,0 -1.927,-0.165 -2.846,-0.495 -65.38,-23.535 -89.183,-69.068 -97.644,-103.12 -10.865,-43.728 -0.946,-85.001 7.194,-93.948 2.291,-2.517 5.84,-3.463 9.068,-2.421 18.701,6.014 115.252,67.098 92.898,192.738 -0.061,0.347 -0.148,0.694 -0.252,1.033 -0.694,2.265 -2.308,4.209 -4.434,5.268 -1.242,0.615 -2.613,0.945 -3.984,0.945"
             id="path5-7-5-2-7-7-7-0" /></g><g
           id="g7-9-9-6-4-1-8"><path
             style="fill:#5aba63"
             d="m 270.264,277.697 c -2.187,0 -4.382,-0.824 -6.075,-2.482 -3.419,-3.35 -3.48,-8.843 -0.121,-12.271 l 53.404,-54.524 c 3.358,-3.428 8.852,-3.48 12.271,-0.13 3.428,3.35 3.489,8.843 0.13,12.271 l -53.413,54.532 c -1.692,1.736 -3.948,2.604 -6.196,2.604"
             id="path6-9-2-3-4-0-2-9" /><path
             style="fill:#5aba63"
             d="m 244.467,200.311 c -3.15,0 -6.187,-1.718 -7.732,-4.712 l -39.224,-76.436 c -2.196,-4.261 -0.503,-9.494 3.758,-11.681 4.261,-2.204 9.494,-0.503 11.681,3.758 l 39.233,76.427 c 2.187,4.27 0.503,9.502 -3.758,11.689 -1.268,0.652 -2.63,0.955 -3.958,0.955"
             id="path7-2-2-1-3-6-2-8" /></g></g><g
         id="g8-8-9-0-4-0-8"
         transform="matrix(0.02014203,0,0,0.01954298,190.04677,47.570809)"><path
           style="fill:#5aba63"
           d="m 252.899,512.002 c -4.504,0 -8.313,-3.471 -8.643,-8.036 -7.706,-104.222 3.662,-160.516 11.186,-197.762 8.669,-42.947 12.635,-62.551 -18.276,-109.698 -2.629,-4.009 -1.51,-9.39 2.499,-12.019 4.009,-2.629 9.39,-1.519 12.019,2.499 34.816,53.118 29.826,77.815 20.766,122.654 -7.775,38.487 -18.415,91.205 -10.891,193.041 0.356,4.782 -3.237,8.947 -8.01,9.294 -0.216,0.019 -0.433,0.027 -0.65,0.027"
           id="path1-79-4-3-7-2-0" /><g
           id="g5-2-78-0-4-1-3"><path
             style="fill:#91cf96"
             d="m 252.908,512.002 c 0,-81.651 -45.481,-234.305 -114.35,-234.305 -48.136,139.49 20.359,234.305 114.35,234.305"
             id="path2-0-4-9-85-7-7" /><path
             style="fill:#91cf96"
             d="m 252.908,512.002 c 0,-81.651 45.481,-234.305 114.35,-234.305 48.136,139.49 -20.359,234.305 -114.35,234.305"
             id="path3-1-23-5-2-8-5-0" /><path
             style="fill:#91cf96"
             d="m 270.264,277.697 c -1.927,0 -3.81,-0.642 -5.346,-1.84 -2.013,-1.579 -3.237,-3.966 -3.332,-6.517 -2.994,-81.868 59.184,-115.538 118.376,-119.747 2.3,-0.148 4.565,0.599 6.3,2.1 1.736,1.51 2.803,3.645 2.968,5.944 0.876,12.314 -16.419,98.807 -117.187,119.877 -0.59,0.122 -1.189,0.183 -1.779,0.183"
             id="path4-8-7-0-5-26-1-6" /><path
             style="fill:#91cf96"
             d="m 244.332,200.401 c -0.963,0 -1.927,-0.165 -2.846,-0.495 -65.38,-23.535 -89.183,-69.068 -97.644,-103.12 -10.865,-43.728 -0.946,-85.001 7.194,-93.948 2.291,-2.517 5.84,-3.463 9.068,-2.421 18.701,6.014 115.252,67.098 92.898,192.738 -0.061,0.347 -0.148,0.694 -0.252,1.033 -0.694,2.265 -2.308,4.209 -4.434,5.268 -1.242,0.615 -2.613,0.945 -3.984,0.945"
             id="path5-7-5-3-4-0-7-9" /></g><g
           id="g7-9-6-0-6-4-21"><path
             style="fill:#5aba63"
             d="m 270.264,277.697 c -2.187,0 -4.382,-0.824 -6.075,-2.482 -3.419,-3.35 -3.48,-8.843 -0.121,-12.271 l 53.404,-54.524 c 3.358,-3.428 8.852,-3.48 12.271,-0.13 3.428,3.35 3.489,8.843 0.13,12.271 l -53.413,54.532 c -1.692,1.736 -3.948,2.604 -6.196,2.604"
             id="path6-9-2-1-5-64-1-7" /><path
             style="fill:#5aba63"
             d="m 244.467,200.311 c -3.15,0 -6.187,-1.718 -7.732,-4.712 l -39.224,-76.436 c -2.196,-4.261 -0.503,-9.494 3.758,-11.681 4.261,-2.204 9.494,-0.503 11.681,3.758 l 39.233,76.427 c 2.187,4.27 0.503,9.502 -3.758,11.689 -1.268,0.652 -2.63,0.955 -3.958,0.955"
             id="path7-2-2-0-9-6-7-79" /></g></g><g
         id="g8-8-9-0-0-2-1-7"
         transform="matrix(0.02014203,0,0,0.01954298,204.92402,47.570809)"><path
           style="fill:#5aba63"
           d="m 252.899,512.002 c -4.504,0 -8.313,-3.471 -8.643,-8.036 -7.706,-104.222 3.662,-160.516 11.186,-197.762 8.669,-42.947 12.635,-62.551 -18.276,-109.698 -2.629,-4.009 -1.51,-9.39 2.499,-12.019 4.009,-2.629 9.39,-1.519 12.019,2.499 34.816,53.118 29.826,77.815 20.766,122.654 -7.775,38.487 -18.415,91.205 -10.891,193.041 0.356,4.782 -3.237,8.947 -8.01,9.294 -0.216,0.019 -0.433,0.027 -0.65,0.027"
           id="path1-79-4-3-5-89-1-6" /><g
           id="g5-2-78-0-1-6-1-2"><path
             style="fill:#91cf96"
             d="m 252.908,512.002 c 0,-81.651 -45.481,-234.305 -114.35,-234.305 -48.136,139.49 20.359,234.305 114.35,234.305"
             id="path2-0-4-9-1-0-7-7" /><path
             style="fill:#91cf96"
             d="m 252.908,512.002 c 0,-81.651 45.481,-234.305 114.35,-234.305 48.136,139.49 -20.359,234.305 -114.35,234.305"
             id="path3-1-23-5-2-0-7-0-1" /><path
             style="fill:#91cf96"
             d="m 270.264,277.697 c -1.927,0 -3.81,-0.642 -5.346,-1.84 -2.013,-1.579 -3.237,-3.966 -3.332,-6.517 -2.994,-81.868 59.184,-115.538 118.376,-119.747 2.3,-0.148 4.565,0.599 6.3,2.1 1.736,1.51 2.803,3.645 2.968,5.944 0.876,12.314 -16.419,98.807 -117.187,119.877 -0.59,0.122 -1.189,0.183 -1.779,0.183"
             id="path4-8-7-0-5-8-0-4-5" /><path
             style="fill:#91cf96"
             d="m 244.332,200.401 c -0.963,0 -1.927,-0.165 -2.846,-0.495 -65.38,-23.535 -89.183,-69.068 -97.644,-103.12 -10.865,-43.728 -0.946,-85.001 7.194,-93.948 2.291,-2.517 5.84,-3.463 9.068,-2.421 18.701,6.014 115.252,67.098 92.898,192.738 -0.061,0.347 -0.148,0.694 -0.252,1.033 -0.694,2.265 -2.308,4.209 -4.434,5.268 -1.242,0.615 -2.613,0.945 -3.984,0.945"
             id="path5-7-5-3-4-5-1-0-8" /></g><g
           id="g7-9-6-0-0-0-8-84"><path
             style="fill:#5aba63"
             d="m 270.264,277.697 c -2.187,0 -4.382,-0.824 -6.075,-2.482 -3.419,-3.35 -3.48,-8.843 -0.121,-12.271 l 53.404,-54.524 c 3.358,-3.428 8.852,-3.48 12.271,-0.13 3.428,3.35 3.489,8.843 0.13,12.271 l -53.413,54.532 c -1.692,1.736 -3.948,2.604 -6.196,2.604"
             id="path6-9-2-1-5-6-1-5-56" /><path
             style="fill:#5aba63"
             d="m 244.467,200.311 c -3.15,0 -6.187,-1.718 -7.732,-4.712 l -39.224,-76.436 c -2.196,-4.261 -0.503,-9.494 3.758,-11.681 4.261,-2.204 9.494,-0.503 11.681,3.758 l 39.233,76.427 c 2.187,4.27 0.503,9.502 -3.758,11.689 -1.268,0.652 -2.63,0.955 -3.958,0.955"
             id="path7-2-2-0-9-4-37-1-5" /></g></g><g
         id="g8-8-9-0-6-7-6-6"
         transform="matrix(0.02014203,0,0,0.01954298,190.04677,61.043267)"><path
           style="fill:#5aba63"
           d="m 252.899,512.002 c -4.504,0 -8.313,-3.471 -8.643,-8.036 -7.706,-104.222 3.662,-160.516 11.186,-197.762 8.669,-42.947 12.635,-62.551 -18.276,-109.698 -2.629,-4.009 -1.51,-9.39 2.499,-12.019 4.009,-2.629 9.39,-1.519 12.019,2.499 34.816,53.118 29.826,77.815 20.766,122.654 -7.775,38.487 -18.415,91.205 -10.891,193.041 0.356,4.782 -3.237,8.947 -8.01,9.294 -0.216,0.019 -0.433,0.027 -0.65,0.027"
           id="path1-79-4-3-2-2-6-84" /><g
           id="g5-2-78-0-5-6-2-8"><path
             style="fill:#91cf96"
             d="m 252.908,512.002 c 0,-81.651 -45.481,-234.305 -114.35,-234.305 -48.136,139.49 20.359,234.305 114.35,234.305"
             id="path2-0-4-9-8-4-1-8" /><path
             style="fill:#91cf96"
             d="m 252.908,512.002 c 0,-81.651 45.481,-234.305 114.35,-234.305 48.136,139.49 -20.359,234.305 -114.35,234.305"
             id="path3-1-23-5-2-6-5-9-38" /><path
             style="fill:#91cf96"
             d="m 270.264,277.697 c -1.927,0 -3.81,-0.642 -5.346,-1.84 -2.013,-1.579 -3.237,-3.966 -3.332,-6.517 -2.994,-81.868 59.184,-115.538 118.376,-119.747 2.3,-0.148 4.565,0.599 6.3,2.1 1.736,1.51 2.803,3.645 2.968,5.944 0.876,12.314 -16.419,98.807 -117.187,119.877 -0.59,0.122 -1.189,0.183 -1.779,0.183"
             id="path4-8-7-0-5-2-2-6-7" /><path
             style="fill:#91cf96"
             d="m 244.332,200.401 c -0.963,0 -1.927,-0.165 -2.846,-0.495 -65.38,-23.535 -89.183,-69.068 -97.644,-103.12 -10.865,-43.728 -0.946,-85.001 7.194,-93.948 2.291,-2.517 5.84,-3.463 9.068,-2.421 18.701,6.014 115.252,67.098 92.898,192.738 -0.061,0.347 -0.148,0.694 -0.252,1.033 -0.694,2.265 -2.308,4.209 -4.434,5.268 -1.242,0.615 -2.613,0.945 -3.984,0.945"
             id="path5-7-5-3-4-8-0-4-5" /></g><g
           id="g7-9-6-0-4-2-8-2"><path
             style="fill:#5aba63"
             d="m 270.264,277.697 c -2.187,0 -4.382,-0.824 -6.075,-2.482 -3.419,-3.35 -3.48,-8.843 -0.121,-12.271 l 53.404,-54.524 c 3.358,-3.428 8.852,-3.48 12.271,-0.13 3.428,3.35 3.489,8.843 0.13,12.271 l -53.413,54.532 c -1.692,1.736 -3.948,2.604 -6.196,2.604"
             id="path6-9-2-1-5-7-90-0-4" /><path
             style="fill:#5aba63"
             d="m 244.467,200.311 c -3.15,0 -6.187,-1.718 -7.732,-4.712 l -39.224,-76.436 c -2.196,-4.261 -0.503,-9.494 3.758,-11.681 4.261,-2.204 9.494,-0.503 11.681,3.758 l 39.233,76.427 c 2.187,4.27 0.503,9.502 -3.758,11.689 -1.268,0.652 -2.63,0.955 -3.958,0.955"
             id="path7-2-2-0-9-2-9-8-5" /></g></g><g
         id="g8-8-8-4-1-1-0"
         transform="matrix(0.02014203,0,0,0.01954298,175.16952,87.564758)"><path
           style="fill:#5aba63"
           d="m 252.899,512.002 c -4.504,0 -8.313,-3.471 -8.643,-8.036 -7.706,-104.222 3.662,-160.516 11.186,-197.762 8.669,-42.947 12.635,-62.551 -18.276,-109.698 -2.629,-4.009 -1.51,-9.39 2.499,-12.019 4.009,-2.629 9.39,-1.519 12.019,2.499 34.816,53.118 29.826,77.815 20.766,122.654 -7.775,38.487 -18.415,91.205 -10.891,193.041 0.356,4.782 -3.237,8.947 -8.01,9.294 -0.216,0.019 -0.433,0.027 -0.65,0.027"
           id="path1-79-9-8-1-0-5" /><g
           id="g5-2-7-8-9-2-7"><path
             style="fill:#91cf96"
             d="m 252.908,512.002 c 0,-81.651 -45.481,-234.305 -114.35,-234.305 -48.136,139.49 20.359,234.305 114.35,234.305"
             id="path2-0-3-8-0-29-3" /><path
             style="fill:#91cf96"
             d="m 252.908,512.002 c 0,-81.651 45.481,-234.305 114.35,-234.305 48.136,139.49 -20.359,234.305 -114.35,234.305"
             id="path3-1-23-6-9-5-7-2" /><path
             style="fill:#91cf96"
             d="m 270.264,277.697 c -1.927,0 -3.81,-0.642 -5.346,-1.84 -2.013,-1.579 -3.237,-3.966 -3.332,-6.517 -2.994,-81.868 59.184,-115.538 118.376,-119.747 2.3,-0.148 4.565,0.599 6.3,2.1 1.736,1.51 2.803,3.645 2.968,5.944 0.876,12.314 -16.419,98.807 -117.187,119.877 -0.59,0.122 -1.189,0.183 -1.779,0.183"
             id="path4-8-7-1-7-67-5-7" /><path
             style="fill:#91cf96"
             d="m 244.332,200.401 c -0.963,0 -1.927,-0.165 -2.846,-0.495 -65.38,-23.535 -89.183,-69.068 -97.644,-103.12 -10.865,-43.728 -0.946,-85.001 7.194,-93.948 2.291,-2.517 5.84,-3.463 9.068,-2.421 18.701,6.014 115.252,67.098 92.898,192.738 -0.061,0.347 -0.148,0.694 -0.252,1.033 -0.694,2.265 -2.308,4.209 -4.434,5.268 -1.242,0.615 -2.613,0.945 -3.984,0.945"
             id="path5-7-5-2-7-7-6-2" /></g><g
           id="g7-9-9-6-4-4-1"><path
             style="fill:#5aba63"
             d="m 270.264,277.697 c -2.187,0 -4.382,-0.824 -6.075,-2.482 -3.419,-3.35 -3.48,-8.843 -0.121,-12.271 l 53.404,-54.524 c 3.358,-3.428 8.852,-3.48 12.271,-0.13 3.428,3.35 3.489,8.843 0.13,12.271 l -53.413,54.532 c -1.692,1.736 -3.948,2.604 -6.196,2.604"
             id="path6-9-2-3-4-0-6-3" /><path
             style="fill:#5aba63"
             d="m 244.467,200.311 c -3.15,0 -6.187,-1.718 -7.732,-4.712 l -39.224,-76.436 c -2.196,-4.261 -0.503,-9.494 3.758,-11.681 4.261,-2.204 9.494,-0.503 11.681,3.758 l 39.233,76.427 c 2.187,4.27 0.503,9.502 -3.758,11.689 -1.268,0.652 -2.63,0.955 -3.958,0.955"
             id="path7-2-2-1-3-6-3-4" /></g></g><g
         id="g8-8-9-0-4-7-9"
         transform="matrix(0.02014203,0,0,0.01954298,160.29227,74.515728)"><path
           style="fill:#5aba63"
           d="m 252.899,512.002 c -4.504,0 -8.313,-3.471 -8.643,-8.036 -7.706,-104.222 3.662,-160.516 11.186,-197.762 8.669,-42.947 12.635,-62.551 -18.276,-109.698 -2.629,-4.009 -1.51,-9.39 2.499,-12.019 4.009,-2.629 9.39,-1.519 12.019,2.499 34.816,53.118 29.826,77.815 20.766,122.654 -7.775,38.487 -18.415,91.205 -10.891,193.041 0.356,4.782 -3.237,8.947 -8.01,9.294 -0.216,0.019 -0.433,0.027 -0.65,0.027"
           id="path1-79-4-3-7-9-4" /><g
           id="g5-2-78-0-4-7-1"><path
             style="fill:#91cf96"
             d="m 252.908,512.002 c 0,-81.651 -45.481,-234.305 -114.35,-234.305 -48.136,139.49 20.359,234.305 114.35,234.305"
             id="path2-0-4-9-85-4-9" /><path
             style="fill:#91cf96"
             d="m 252.908,512.002 c 0,-81.651 45.481,-234.305 114.35,-234.305 48.136,139.49 -20.359,234.305 -114.35,234.305"
             id="path3-1-23-5-2-8-9-5" /><path
             style="fill:#91cf96"
             d="m 270.264,277.697 c -1.927,0 -3.81,-0.642 -5.346,-1.84 -2.013,-1.579 -3.237,-3.966 -3.332,-6.517 -2.994,-81.868 59.184,-115.538 118.376,-119.747 2.3,-0.148 4.565,0.599 6.3,2.1 1.736,1.51 2.803,3.645 2.968,5.944 0.876,12.314 -16.419,98.807 -117.187,119.877 -0.59,0.122 -1.189,0.183 -1.779,0.183"
             id="path4-8-7-0-5-26-17-7" /><path
             style="fill:#91cf96"
             d="m 244.332,200.401 c -0.963,0 -1.927,-0.165 -2.846,-0.495 -65.38,-23.535 -89.183,-69.068 -97.644,-103.12 -10.865,-43.728 -0.946,-85.001 7.194,-93.948 2.291,-2.517 5.84,-3.463 9.068,-2.421 18.701,6.014 115.252,67.098 92.898,192.738 -0.061,0.347 -0.148,0.694 -0.252,1.033 -0.694,2.265 -2.308,4.209 -4.434,5.268 -1.242,0.615 -2.613,0.945 -3.984,0.945"
             id="path5-7-5-3-4-0-0-4" /></g><g
           id="g7-9-6-0-6-6-1"><path
             style="fill:#5aba63"
             d="m 270.264,277.697 c -2.187,0 -4.382,-0.824 -6.075,-2.482 -3.419,-3.35 -3.48,-8.843 -0.121,-12.271 l 53.404,-54.524 c 3.358,-3.428 8.852,-3.48 12.271,-0.13 3.428,3.35 3.489,8.843 0.13,12.271 l -53.413,54.532 c -1.692,1.736 -3.948,2.604 -6.196,2.604"
             id="path6-9-2-1-5-64-0-2" /><path
             style="fill:#5aba63"
             d="m 244.467,200.311 c -3.15,0 -6.187,-1.718 -7.732,-4.712 l -39.224,-76.436 c -2.196,-4.261 -0.503,-9.494 3.758,-11.681 4.261,-2.204 9.494,-0.503 11.681,3.758 l 39.233,76.427 c 2.187,4.27 0.503,9.502 -3.758,11.689 -1.268,0.652 -2.63,0.955 -3.958,0.955"
             id="path7-2-2-0-9-6-8-2" /></g></g><g
         id="g8-8-9-0-0-2-5-1"
         transform="matrix(0.02014203,0,0,0.01954298,175.16952,74.515728)"><path
           style="fill:#5aba63"
           d="m 252.899,512.002 c -4.504,0 -8.313,-3.471 -8.643,-8.036 -7.706,-104.222 3.662,-160.516 11.186,-197.762 8.669,-42.947 12.635,-62.551 -18.276,-109.698 -2.629,-4.009 -1.51,-9.39 2.499,-12.019 4.009,-2.629 9.39,-1.519 12.019,2.499 34.816,53.118 29.826,77.815 20.766,122.654 -7.775,38.487 -18.415,91.205 -10.891,193.041 0.356,4.782 -3.237,8.947 -8.01,9.294 -0.216,0.019 -0.433,0.027 -0.65,0.027"
           id="path1-79-4-3-5-89-3-6" /><g
           id="g5-2-78-0-1-6-9-2"><path
             style="fill:#91cf96"
             d="m 252.908,512.002 c 0,-81.651 -45.481,-234.305 -114.35,-234.305 -48.136,139.49 20.359,234.305 114.35,234.305"
             id="path2-0-4-9-1-0-4-0" /><path
             style="fill:#91cf96"
             d="m 252.908,512.002 c 0,-81.651 45.481,-234.305 114.35,-234.305 48.136,139.49 -20.359,234.305 -114.35,234.305"
             id="path3-1-23-5-2-0-7-1-2" /><path
             style="fill:#91cf96"
             d="m 270.264,277.697 c -1.927,0 -3.81,-0.642 -5.346,-1.84 -2.013,-1.579 -3.237,-3.966 -3.332,-6.517 -2.994,-81.868 59.184,-115.538 118.376,-119.747 2.3,-0.148 4.565,0.599 6.3,2.1 1.736,1.51 2.803,3.645 2.968,5.944 0.876,12.314 -16.419,98.807 -117.187,119.877 -0.59,0.122 -1.189,0.183 -1.779,0.183"
             id="path4-8-7-0-5-8-0-5-2" /><path
             style="fill:#91cf96"
             d="m 244.332,200.401 c -0.963,0 -1.927,-0.165 -2.846,-0.495 -65.38,-23.535 -89.183,-69.068 -97.644,-103.12 -10.865,-43.728 -0.946,-85.001 7.194,-93.948 2.291,-2.517 5.84,-3.463 9.068,-2.421 18.701,6.014 115.252,67.098 92.898,192.738 -0.061,0.347 -0.148,0.694 -0.252,1.033 -0.694,2.265 -2.308,4.209 -4.434,5.268 -1.242,0.615 -2.613,0.945 -3.984,0.945"
             id="path5-7-5-3-4-5-1-4-9" /></g><g
           id="g7-9-6-0-0-0-1-7"><path
             style="fill:#5aba63"
             d="m 270.264,277.697 c -2.187,0 -4.382,-0.824 -6.075,-2.482 -3.419,-3.35 -3.48,-8.843 -0.121,-12.271 l 53.404,-54.524 c 3.358,-3.428 8.852,-3.48 12.271,-0.13 3.428,3.35 3.489,8.843 0.13,12.271 l -53.413,54.532 c -1.692,1.736 -3.948,2.604 -6.196,2.604"
             id="path6-9-2-1-5-6-1-55-4" /><path
             style="fill:#5aba63"
             d="m 244.467,200.311 c -3.15,0 -6.187,-1.718 -7.732,-4.712 l -39.224,-76.436 c -2.196,-4.261 -0.503,-9.494 3.758,-11.681 4.261,-2.204 9.494,-0.503 11.681,3.758 l 39.233,76.427 c 2.187,4.27 0.503,9.502 -3.758,11.689 -1.268,0.652 -2.63,0.955 -3.958,0.955"
             id="path7-2-2-0-9-4-37-4-3" /></g></g><g
         id="g8-8-9-0-6-7-9-5"
         transform="matrix(0.02014203,0,0,0.01954298,160.29227,87.564758)"><path
           style="fill:#5aba63"
           d="m 252.899,512.002 c -4.504,0 -8.313,-3.471 -8.643,-8.036 -7.706,-104.222 3.662,-160.516 11.186,-197.762 8.669,-42.947 12.635,-62.551 -18.276,-109.698 -2.629,-4.009 -1.51,-9.39 2.499,-12.019 4.009,-2.629 9.39,-1.519 12.019,2.499 34.816,53.118 29.826,77.815 20.766,122.654 -7.775,38.487 -18.415,91.205 -10.891,193.041 0.356,4.782 -3.237,8.947 -8.01,9.294 -0.216,0.019 -0.433,0.027 -0.65,0.027"
           id="path1-79-4-3-2-2-8-6" /><g
           id="g5-2-78-0-5-6-3-1"><path
             style="fill:#91cf96"
             d="m 252.908,512.002 c 0,-81.651 -45.481,-234.305 -114.35,-234.305 -48.136,139.49 20.359,234.305 114.35,234.305"
             id="path2-0-4-9-8-4-8-4" /><path
             style="fill:#91cf96"
             d="m 252.908,512.002 c 0,-81.651 45.481,-234.305 114.35,-234.305 48.136,139.49 -20.359,234.305 -114.35,234.305"
             id="path3-1-23-5-2-6-5-5-0" /><path
             style="fill:#91cf96"
             d="m 270.264,277.697 c -1.927,0 -3.81,-0.642 -5.346,-1.84 -2.013,-1.579 -3.237,-3.966 -3.332,-6.517 -2.994,-81.868 59.184,-115.538 118.376,-119.747 2.3,-0.148 4.565,0.599 6.3,2.1 1.736,1.51 2.803,3.645 2.968,5.944 0.876,12.314 -16.419,98.807 -117.187,119.877 -0.59,0.122 -1.189,0.183 -1.779,0.183"
             id="path4-8-7-0-5-2-2-2-3" /><path
             style="fill:#91cf96"
             d="m 244.332,200.401 c -0.963,0 -1.927,-0.165 -2.846,-0.495 -65.38,-23.535 -89.183,-69.068 -97.644,-103.12 -10.865,-43.728 -0.946,-85.001 7.194,-93.948 2.291,-2.517 5.84,-3.463 9.068,-2.421 18.701,6.014 115.252,67.098 92.898,192.738 -0.061,0.347 -0.148,0.694 -0.252,1.033 -0.694,2.265 -2.308,4.209 -4.434,5.268 -1.242,0.615 -2.613,0.945 -3.984,0.945"
             id="path5-7-5-3-4-8-0-2-1" /></g><g
           id="g7-9-6-0-4-2-2-2"><path
             style="fill:#5aba63"
             d="m 270.264,277.697 c -2.187,0 -4.382,-0.824 -6.075,-2.482 -3.419,-3.35 -3.48,-8.843 -0.121,-12.271 l 53.404,-54.524 c 3.358,-3.428 8.852,-3.48 12.271,-0.13 3.428,3.35 3.489,8.843 0.13,12.271 l -53.413,54.532 c -1.692,1.736 -3.948,2.604 -6.196,2.604"
             id="path6-9-2-1-5-7-90-7-7" /><path
             style="fill:#5aba63"
             d="m 244.467,200.311 c -3.15,0 -6.187,-1.718 -7.732,-4.712 l -39.224,-76.436 c -2.196,-4.261 -0.503,-9.494 3.758,-11.681 4.261,-2.204 9.494,-0.503 11.681,3.758 l 39.233,76.427 c 2.187,4.27 0.503,9.502 -3.758,11.689 -1.268,0.652 -2.63,0.955 -3.958,0.955"
             id="path7-2-2-0-9-2-9-0-7" /></g></g><g
         id="g8-8-8-4-1-9-3-9"
         transform="matrix(0.02014203,0,0,0.01954298,204.92402,87.564758)"><path
           style="fill:#5aba63"
           d="m 252.899,512.002 c -4.504,0 -8.313,-3.471 -8.643,-8.036 -7.706,-104.222 3.662,-160.516 11.186,-197.762 8.669,-42.947 12.635,-62.551 -18.276,-109.698 -2.629,-4.009 -1.51,-9.39 2.499,-12.019 4.009,-2.629 9.39,-1.519 12.019,2.499 34.816,53.118 29.826,77.815 20.766,122.654 -7.775,38.487 -18.415,91.205 -10.891,193.041 0.356,4.782 -3.237,8.947 -8.01,9.294 -0.216,0.019 -0.433,0.027 -0.65,0.027"
           id="path1-79-9-8-1-9-4-8" /><g
           id="g5-2-7-8-9-3-6-1"><path
             style="fill:#91cf96"
             d="m 252.908,512.002 c 0,-81.651 -45.481,-234.305 -114.35,-234.305 -48.136,139.49 20.359,234.305 114.35,234.305"
             id="path2-0-3-8-0-2-3-0" /><path
             style="fill:#91cf96"
             d="m 252.908,512.002 c 0,-81.651 45.481,-234.305 114.35,-234.305 48.136,139.49 -20.359,234.305 -114.35,234.305"
             id="path3-1-23-6-9-5-4-6-7" /><path
             style="fill:#91cf96"
             d="m 270.264,277.697 c -1.927,0 -3.81,-0.642 -5.346,-1.84 -2.013,-1.579 -3.237,-3.966 -3.332,-6.517 -2.994,-81.868 59.184,-115.538 118.376,-119.747 2.3,-0.148 4.565,0.599 6.3,2.1 1.736,1.51 2.803,3.645 2.968,5.944 0.876,12.314 -16.419,98.807 -117.187,119.877 -0.59,0.122 -1.189,0.183 -1.779,0.183"
             id="path4-8-7-1-7-67-3-3-6" /><path
             style="fill:#91cf96"
             d="m 244.332,200.401 c -0.963,0 -1.927,-0.165 -2.846,-0.495 -65.38,-23.535 -89.183,-69.068 -97.644,-103.12 -10.865,-43.728 -0.946,-85.001 7.194,-93.948 2.291,-2.517 5.84,-3.463 9.068,-2.421 18.701,6.014 115.252,67.098 92.898,192.738 -0.061,0.347 -0.148,0.694 -0.252,1.033 -0.694,2.265 -2.308,4.209 -4.434,5.268 -1.242,0.615 -2.613,0.945 -3.984,0.945"
             id="path5-7-5-2-7-7-7-3-0" /></g><g
           id="g7-9-9-6-4-1-4-1"><path
             style="fill:#5aba63"
             d="m 270.264,277.697 c -2.187,0 -4.382,-0.824 -6.075,-2.482 -3.419,-3.35 -3.48,-8.843 -0.121,-12.271 l 53.404,-54.524 c 3.358,-3.428 8.852,-3.48 12.271,-0.13 3.428,3.35 3.489,8.843 0.13,12.271 l -53.413,54.532 c -1.692,1.736 -3.948,2.604 -6.196,2.604"
             id="path6-9-2-3-4-0-2-4-0" /><path
             style="fill:#5aba63"
             d="m 244.467,200.311 c -3.15,0 -6.187,-1.718 -7.732,-4.712 l -39.224,-76.436 c -2.196,-4.261 -0.503,-9.494 3.758,-11.681 4.261,-2.204 9.494,-0.503 11.681,3.758 l 39.233,76.427 c 2.187,4.27 0.503,9.502 -3.758,11.689 -1.268,0.652 -2.63,0.955 -3.958,0.955"
             id="path7-2-2-1-3-6-2-3-2" /></g></g><g
         id="g8-8-9-0-4-0-9-5"
         transform="matrix(0.02014203,0,0,0.01954298,190.04677,74.515728)"><path
           style="fill:#5aba63"
           d="m 252.899,512.002 c -4.504,0 -8.313,-3.471 -8.643,-8.036 -7.706,-104.222 3.662,-160.516 11.186,-197.762 8.669,-42.947 12.635,-62.551 -18.276,-109.698 -2.629,-4.009 -1.51,-9.39 2.499,-12.019 4.009,-2.629 9.39,-1.519 12.019,2.499 34.816,53.118 29.826,77.815 20.766,122.654 -7.775,38.487 -18.415,91.205 -10.891,193.041 0.356,4.782 -3.237,8.947 -8.01,9.294 -0.216,0.019 -0.433,0.027 -0.65,0.027"
           id="path1-79-4-3-7-2-7-1" /><g
           id="g5-2-78-0-4-1-2-9"><path
             style="fill:#91cf96"
             d="m 252.908,512.002 c 0,-81.651 -45.481,-234.305 -114.35,-234.305 -48.136,139.49 20.359,234.305 114.35,234.305"
             id="path2-0-4-9-85-7-5-7" /><path
             style="fill:#91cf96"
             d="m 252.908,512.002 c 0,-81.651 45.481,-234.305 114.35,-234.305 48.136,139.49 -20.359,234.305 -114.35,234.305"
             id="path3-1-23-5-2-8-5-8-1" /><path
             style="fill:#91cf96"
             d="m 270.264,277.697 c -1.927,0 -3.81,-0.642 -5.346,-1.84 -2.013,-1.579 -3.237,-3.966 -3.332,-6.517 -2.994,-81.868 59.184,-115.538 118.376,-119.747 2.3,-0.148 4.565,0.599 6.3,2.1 1.736,1.51 2.803,3.645 2.968,5.944 0.876,12.314 -16.419,98.807 -117.187,119.877 -0.59,0.122 -1.189,0.183 -1.779,0.183"
             id="path4-8-7-0-5-26-1-9-3" /><path
             style="fill:#91cf96"
             d="m 244.332,200.401 c -0.963,0 -1.927,-0.165 -2.846,-0.495 -65.38,-23.535 -89.183,-69.068 -97.644,-103.12 -10.865,-43.728 -0.946,-85.001 7.194,-93.948 2.291,-2.517 5.84,-3.463 9.068,-2.421 18.701,6.014 115.252,67.098 92.898,192.738 -0.061,0.347 -0.148,0.694 -0.252,1.033 -0.694,2.265 -2.308,4.209 -4.434,5.268 -1.242,0.615 -2.613,0.945 -3.984,0.945"
             id="path5-7-5-3-4-0-7-0-1" /></g><g
           id="g7-9-6-0-6-4-2-2"><path
             style="fill:#5aba63"
             d="m 270.264,277.697 c -2.187,0 -4.382,-0.824 -6.075,-2.482 -3.419,-3.35 -3.48,-8.843 -0.121,-12.271 l 53.404,-54.524 c 3.358,-3.428 8.852,-3.48 12.271,-0.13 3.428,3.35 3.489,8.843 0.13,12.271 l -53.413,54.532 c -1.692,1.736 -3.948,2.604 -6.196,2.604"
             id="path6-9-2-1-5-64-1-4-0" /><path
             style="fill:#5aba63"
             d="m 244.467,200.311 c -3.15,0 -6.187,-1.718 -7.732,-4.712 l -39.224,-76.436 c -2.196,-4.261 -0.503,-9.494 3.758,-11.681 4.261,-2.204 9.494,-0.503 11.681,3.758 l 39.233,76.427 c 2.187,4.27 0.503,9.502 -3.758,11.689 -1.268,0.652 -2.63,0.955 -3.958,0.955"
             id="path7-2-2-0-9-6-7-7-6" /></g></g><g
         id="g8-8-9-0-0-2-1-6-8"
         transform="matrix(0.02014203,0,0,0.01954298,204.92402,74.515728)"><path
           style="fill:#5aba63"
           d="m 252.899,512.002 c -4.504,0 -8.313,-3.471 -8.643,-8.036 -7.706,-104.222 3.662,-160.516 11.186,-197.762 8.669,-42.947 12.635,-62.551 -18.276,-109.698 -2.629,-4.009 -1.51,-9.39 2.499,-12.019 4.009,-2.629 9.39,-1.519 12.019,2.499 34.816,53.118 29.826,77.815 20.766,122.654 -7.775,38.487 -18.415,91.205 -10.891,193.041 0.356,4.782 -3.237,8.947 -8.01,9.294 -0.216,0.019 -0.433,0.027 -0.65,0.027"
           id="path1-79-4-3-5-89-1-5-7" /><g
           id="g5-2-78-0-1-6-1-7-4"><path
             style="fill:#91cf96"
             d="m 252.908,512.002 c 0,-81.651 -45.481,-234.305 -114.35,-234.305 -48.136,139.49 20.359,234.305 114.35,234.305"
             id="path2-0-4-9-1-0-7-1-9" /><path
             style="fill:#91cf96"
             d="m 252.908,512.002 c 0,-81.651 45.481,-234.305 114.35,-234.305 48.136,139.49 -20.359,234.305 -114.35,234.305"
             id="path3-1-23-5-2-0-7-0-3-2" /><path
             style="fill:#91cf96"
             d="m 270.264,277.697 c -1.927,0 -3.81,-0.642 -5.346,-1.84 -2.013,-1.579 -3.237,-3.966 -3.332,-6.517 -2.994,-81.868 59.184,-115.538 118.376,-119.747 2.3,-0.148 4.565,0.599 6.3,2.1 1.736,1.51 2.803,3.645 2.968,5.944 0.876,12.314 -16.419,98.807 -117.187,119.877 -0.59,0.122 -1.189,0.183 -1.779,0.183"
             id="path4-8-7-0-5-8-0-4-3-4" /><path
             style="fill:#91cf96"
             d="m 244.332,200.401 c -0.963,0 -1.927,-0.165 -2.846,-0.495 -65.38,-23.535 -89.183,-69.068 -97.644,-103.12 -10.865,-43.728 -0.946,-85.001 7.194,-93.948 2.291,-2.517 5.84,-3.463 9.068,-2.421 18.701,6.014 115.252,67.098 92.898,192.738 -0.061,0.347 -0.148,0.694 -0.252,1.033 -0.694,2.265 -2.308,4.209 -4.434,5.268 -1.242,0.615 -2.613,0.945 -3.984,0.945"
             id="path5-7-5-3-4-5-1-0-3-4" /></g><g
           id="g7-9-6-0-0-0-8-8-5"><path
             style="fill:#5aba63"
             d="m 270.264,277.697 c -2.187,0 -4.382,-0.824 -6.075,-2.482 -3.419,-3.35 -3.48,-8.843 -0.121,-12.271 l 53.404,-54.524 c 3.358,-3.428 8.852,-3.48 12.271,-0.13 3.428,3.35 3.489,8.843 0.13,12.271 l -53.413,54.532 c -1.692,1.736 -3.948,2.604 -6.196,2.604"
             id="path6-9-2-1-5-6-1-5-5-9" /><path
             style="fill:#5aba63"
             d="m 244.467,200.311 c -3.15,0 -6.187,-1.718 -7.732,-4.712 l -39.224,-76.436 c -2.196,-4.261 -0.503,-9.494 3.758,-11.681 4.261,-2.204 9.494,-0.503 11.681,3.758 l 39.233,76.427 c 2.187,4.27 0.503,9.502 -3.758,11.689 -1.268,0.652 -2.63,0.955 -3.958,0.955"
             id="path7-2-2-0-9-4-37-1-1-1" /></g></g><g
         id="g8-8-9-0-6-7-6-0-2"
         transform="matrix(0.02014203,0,0,0.01954298,190.04677,87.564758)"><path
           style="fill:#5aba63"
           d="m 252.899,512.002 c -4.504,0 -8.313,-3.471 -8.643,-8.036 -7.706,-104.222 3.662,-160.516 11.186,-197.762 8.669,-42.947 12.635,-62.551 -18.276,-109.698 -2.629,-4.009 -1.51,-9.39 2.499,-12.019 4.009,-2.629 9.39,-1.519 12.019,2.499 34.816,53.118 29.826,77.815 20.766,122.654 -7.775,38.487 -18.415,91.205 -10.891,193.041 0.356,4.782 -3.237,8.947 -8.01,9.294 -0.216,0.019 -0.433,0.027 -0.65,0.027"
           id="path1-79-4-3-2-2-6-8-8" /><g
           id="g5-2-78-0-5-6-2-7-9"><path
             style="fill:#91cf96"
             d="m 252.908,512.002 c 0,-81.651 -45.481,-234.305 -114.35,-234.305 -48.136,139.49 20.359,234.305 114.35,234.305"
             id="path2-0-4-9-8-4-1-6-6" /><path
             style="fill:#91cf96"
             d="m 252.908,512.002 c 0,-81.651 45.481,-234.305 114.35,-234.305 48.136,139.49 -20.359,234.305 -114.35,234.305"
             id="path3-1-23-5-2-6-5-9-3-0" /><path
             style="fill:#91cf96"
             d="m 270.264,277.697 c -1.927,0 -3.81,-0.642 -5.346,-1.84 -2.013,-1.579 -3.237,-3.966 -3.332,-6.517 -2.994,-81.868 59.184,-115.538 118.376,-119.747 2.3,-0.148 4.565,0.599 6.3,2.1 1.736,1.51 2.803,3.645 2.968,5.944 0.876,12.314 -16.419,98.807 -117.187,119.877 -0.59,0.122 -1.189,0.183 -1.779,0.183"
             id="path4-8-7-0-5-2-2-6-5-6" /><path
             style="fill:#91cf96"
             d="m 244.332,200.401 c -0.963,0 -1.927,-0.165 -2.846,-0.495 -65.38,-23.535 -89.183,-69.068 -97.644,-103.12 -10.865,-43.728 -0.946,-85.001 7.194,-93.948 2.291,-2.517 5.84,-3.463 9.068,-2.421 18.701,6.014 115.252,67.098 92.898,192.738 -0.061,0.347 -0.148,0.694 -0.252,1.033 -0.694,2.265 -2.308,4.209 -4.434,5.268 -1.242,0.615 -2.613,0.945 -3.984,0.945"
             id="path5-7-5-3-4-8-0-4-0-4" /></g><g
           id="g7-9-6-0-4-2-8-8-0"><path
             style="fill:#5aba63"
             d="m 270.264,277.697 c -2.187,0 -4.382,-0.824 -6.075,-2.482 -3.419,-3.35 -3.48,-8.843 -0.121,-12.271 l 53.404,-54.524 c 3.358,-3.428 8.852,-3.48 12.271,-0.13 3.428,3.35 3.489,8.843 0.13,12.271 l -53.413,54.532 c -1.692,1.736 -3.948,2.604 -6.196,2.604"
             id="path6-9-2-1-5-7-90-0-0-9" /><path
             style="fill:#5aba63"
             d="m 244.467,200.311 c -3.15,0 -6.187,-1.718 -7.732,-4.712 l -39.224,-76.436 c -2.196,-4.261 -0.503,-9.494 3.758,-11.681 4.261,-2.204 9.494,-0.503 11.681,3.758 l 39.233,76.427 c 2.187,4.27 0.503,9.502 -3.758,11.689 -1.268,0.652 -2.63,0.955 -3.958,0.955"
             id="path7-2-2-0-9-2-9-8-4-4" /></g></g></g></g></svg>
