<?xml version="1.0" encoding="UTF-8" standalone="no"?>
<!-- Created with Inkscape (http://www.inkscape.org/) -->

<svg
   width="32mm"
   height="32mm"
   viewBox="0 0 32 32"
   version="1.1"
   id="svg1"
   xml:space="preserve"
   inkscape:version="1.1.2 (0a00cf5339, 2022-02-04)"
   sodipodi:docname="sfg-2.svg"
   xmlns:inkscape="http://www.inkscape.org/namespaces/inkscape"
   xmlns:sodipodi="http://sodipodi.sourceforge.net/DTD/sodipodi-0.dtd"
   xmlns="http://www.w3.org/2000/svg"
   xmlns:svg="http://www.w3.org/2000/svg"><sodipodi:namedview
     id="namedview1"
     pagecolor="#ffffff"
     bordercolor="#000000"
     borderopacity="0.25"
     inkscape:showpageshadow="2"
     inkscape:pageopacity="0.0"
     inkscape:pagecheckerboard="0"
     inkscape:deskcolor="#d1d1d1"
     inkscape:document-units="mm"
     inkscape:zoom="1.3745301"
     inkscape:cx="136.41025"
     inkscape:cy="238.99076"
     inkscape:window-width="1858"
     inkscape:window-height="1016"
     inkscape:window-x="0"
     inkscape:window-y="0"
     inkscape:window-maximized="1"
     inkscape:current-layer="layer1"
     inkscape:pageshadow="2"
     showgrid="false"
     fit-margin-top="0"
     fit-margin-left="0"
     fit-margin-right="0"
     fit-margin-bottom="0" /><defs
     id="defs1"><rect
       x="403.51077"
       y="263.72293"
       width="314.1991"
       height="72.28434"
       id="rect116504" /><rect
       x="542.67859"
       y="291.90744"
       width="42.126045"
       height="62.546314"
       id="rect96014" /><rect
       x="434.28906"
       y="360.52295"
       width="71.900391"
       height="35.957306"
       id="rect54172" /><rect
       x="411.31482"
       y="287.42807"
       width="263.77982"
       height="118.83572"
       id="rect24234" /></defs><g
     inkscape:label="Capa 1"
     inkscape:groupmode="layer"
     id="layer1"
     transform="translate(-14.798404,-15.760854)"><g
       id="g143742"
       inkscape:export-filename="/home/raul/Escritorio/sfg-2.png"
       inkscape:export-xdpi="96"
       inkscape:export-ydpi="96"
       transform="translate(-17.201596,-16.113331)"><g
         id="g8-8-8-4-1-5-9"
         transform="matrix(0.0214473,0,0,0.02080943,50.430146,49.719713)"><path
           style="fill:#5aba63"
           d="m 252.899,512.002 c -4.504,0 -8.313,-3.471 -8.643,-8.036 -7.706,-104.222 3.662,-160.516 11.186,-197.762 8.669,-42.947 12.635,-62.551 -18.276,-109.698 -2.629,-4.009 -1.51,-9.39 2.499,-12.019 4.009,-2.629 9.39,-1.519 12.019,2.499 34.816,53.118 29.826,77.815 20.766,122.654 -7.775,38.487 -18.415,91.205 -10.891,193.041 0.356,4.782 -3.237,8.947 -8.01,9.294 -0.216,0.019 -0.433,0.027 -0.65,0.027"
           id="path1-79-9-8-1-4-9" /><g
           id="g5-2-7-8-9-6-4"><path
             style="fill:#91cf96"
             d="m 252.908,512.002 c 0,-81.651 -45.481,-234.305 -114.35,-234.305 -48.136,139.49 20.359,234.305 114.35,234.305"
             id="path2-0-3-8-0-6-9" /><path
             style="fill:#91cf96"
             d="m 252.908,512.002 c 0,-81.651 45.481,-234.305 114.35,-234.305 48.136,139.49 -20.359,234.305 -114.35,234.305"
             id="path3-1-23-6-9-5-3-8" /><path
             style="fill:#91cf96"
             d="m 270.264,277.697 c -1.927,0 -3.81,-0.642 -5.346,-1.84 -2.013,-1.579 -3.237,-3.966 -3.332,-6.517 -2.994,-81.868 59.184,-115.538 118.376,-119.747 2.3,-0.148 4.565,0.599 6.3,2.1 1.736,1.51 2.803,3.645 2.968,5.944 0.876,12.314 -16.419,98.807 -117.187,119.877 -0.59,0.122 -1.189,0.183 -1.779,0.183"
             id="path4-8-7-1-7-67-9-1" /><path
             style="fill:#91cf96"
             d="m 244.332,200.401 c -0.963,0 -1.927,-0.165 -2.846,-0.495 -65.38,-23.535 -89.183,-69.068 -97.644,-103.12 -10.865,-43.728 -0.946,-85.001 7.194,-93.948 2.291,-2.517 5.84,-3.463 9.068,-2.421 18.701,6.014 115.252,67.098 92.898,192.738 -0.061,0.347 -0.148,0.694 -0.252,1.033 -0.694,2.265 -2.308,4.209 -4.434,5.268 -1.242,0.615 -2.613,0.945 -3.984,0.945"
             id="path5-7-5-2-7-7-9-6" /></g><g
           id="g7-9-9-6-4-5-3"><path
             style="fill:#5aba63"
             d="m 270.264,277.697 c -2.187,0 -4.382,-0.824 -6.075,-2.482 -3.419,-3.35 -3.48,-8.843 -0.121,-12.271 l 53.404,-54.524 c 3.358,-3.428 8.852,-3.48 12.271,-0.13 3.428,3.35 3.489,8.843 0.13,12.271 l -53.413,54.532 c -1.692,1.736 -3.948,2.604 -6.196,2.604"
             id="path6-9-2-3-4-0-21-9" /><path
             style="fill:#5aba63"
             d="m 244.467,200.311 c -3.15,0 -6.187,-1.718 -7.732,-4.712 l -39.224,-76.436 c -2.196,-4.261 -0.503,-9.494 3.758,-11.681 4.261,-2.204 9.494,-0.503 11.681,3.758 l 39.233,76.427 c 2.187,4.27 0.503,9.502 -3.758,11.689 -1.268,0.652 -2.63,0.955 -3.958,0.955"
             id="path7-2-2-1-3-6-30-3" /></g></g><g
         id="g8-8-9-0-4-9-3"
         transform="matrix(0.0214473,0,0,0.02080943,34.588799,35.374194)"><path
           style="fill:#5aba63"
           d="m 252.899,512.002 c -4.504,0 -8.313,-3.471 -8.643,-8.036 -7.706,-104.222 3.662,-160.516 11.186,-197.762 8.669,-42.947 12.635,-62.551 -18.276,-109.698 -2.629,-4.009 -1.51,-9.39 2.499,-12.019 4.009,-2.629 9.39,-1.519 12.019,2.499 34.816,53.118 29.826,77.815 20.766,122.654 -7.775,38.487 -18.415,91.205 -10.891,193.041 0.356,4.782 -3.237,8.947 -8.01,9.294 -0.216,0.019 -0.433,0.027 -0.65,0.027"
           id="path1-79-4-3-7-91-4" /><g
           id="g5-2-78-0-4-3-6"><path
             style="fill:#91cf96"
             d="m 252.908,512.002 c 0,-81.651 -45.481,-234.305 -114.35,-234.305 -48.136,139.49 20.359,234.305 114.35,234.305"
             id="path2-0-4-9-85-45-1" /><path
             style="fill:#91cf96"
             d="m 252.908,512.002 c 0,-81.651 45.481,-234.305 114.35,-234.305 48.136,139.49 -20.359,234.305 -114.35,234.305"
             id="path3-1-23-5-2-8-8-5" /><path
             style="fill:#91cf96"
             d="m 270.264,277.697 c -1.927,0 -3.81,-0.642 -5.346,-1.84 -2.013,-1.579 -3.237,-3.966 -3.332,-6.517 -2.994,-81.868 59.184,-115.538 118.376,-119.747 2.3,-0.148 4.565,0.599 6.3,2.1 1.736,1.51 2.803,3.645 2.968,5.944 0.876,12.314 -16.419,98.807 -117.187,119.877 -0.59,0.122 -1.189,0.183 -1.779,0.183"
             id="path4-8-7-0-5-26-5-6" /><path
             style="fill:#91cf96"
             d="m 244.332,200.401 c -0.963,0 -1.927,-0.165 -2.846,-0.495 -65.38,-23.535 -89.183,-69.068 -97.644,-103.12 -10.865,-43.728 -0.946,-85.001 7.194,-93.948 2.291,-2.517 5.84,-3.463 9.068,-2.421 18.701,6.014 115.252,67.098 92.898,192.738 -0.061,0.347 -0.148,0.694 -0.252,1.033 -0.694,2.265 -2.308,4.209 -4.434,5.268 -1.242,0.615 -2.613,0.945 -3.984,0.945"
             id="path5-7-5-3-4-0-73-1" /></g><g
           id="g7-9-6-0-6-3-7"><path
             style="fill:#5aba63"
             d="m 270.264,277.697 c -2.187,0 -4.382,-0.824 -6.075,-2.482 -3.419,-3.35 -3.48,-8.843 -0.121,-12.271 l 53.404,-54.524 c 3.358,-3.428 8.852,-3.48 12.271,-0.13 3.428,3.35 3.489,8.843 0.13,12.271 l -53.413,54.532 c -1.692,1.736 -3.948,2.604 -6.196,2.604"
             id="path6-9-2-1-5-64-8-2" /><path
             style="fill:#5aba63"
             d="m 244.467,200.311 c -3.15,0 -6.187,-1.718 -7.732,-4.712 l -39.224,-76.436 c -2.196,-4.261 -0.503,-9.494 3.758,-11.681 4.261,-2.204 9.494,-0.503 11.681,3.758 l 39.233,76.427 c 2.187,4.27 0.503,9.502 -3.758,11.689 -1.268,0.652 -2.63,0.955 -3.958,0.955"
             id="path7-2-2-0-9-6-9-2" /></g></g></g></g></svg>
