<?xml version="1.0" encoding="UTF-8" standalone="no"?>
<!-- Created with Inkscape (http://www.inkscape.org/) -->

<svg
   width="88.865349mm"
   height="21.885258mm"
   viewBox="0 0 88.865349 21.885258"
   version="1.1"
   id="svg1"
   xml:space="preserve"
   inkscape:version="1.3.1 (9b9bdc1480, 2023-11-25, custom)"
   sodipodi:docname="name_bg.svg"
   xmlns:inkscape="http://www.inkscape.org/namespaces/inkscape"
   xmlns:sodipodi="http://sodipodi.sourceforge.net/DTD/sodipodi-0.dtd"
   xmlns="http://www.w3.org/2000/svg"
   xmlns:svg="http://www.w3.org/2000/svg"><sodipodi:namedview
     id="namedview1"
     pagecolor="#ffffff"
     bordercolor="#000000"
     borderopacity="0.25"
     inkscape:showpageshadow="2"
     inkscape:pageopacity="0.0"
     inkscape:pagecheckerboard="0"
     inkscape:deskcolor="#d1d1d1"
     inkscape:document-units="mm"
     inkscape:zoom="1.9578168"
     inkscape:cx="182.34597"
     inkscape:cy="177.23824"
     inkscape:window-width="1856"
     inkscape:window-height="1016"
     inkscape:window-x="0"
     inkscape:window-y="0"
     inkscape:window-maximized="1"
     inkscape:current-layer="layer1" /><defs
     id="defs1" /><g
     inkscape:label="Capa 1"
     inkscape:groupmode="layer"
     id="layer1"
     transform="translate(-35.974478,-109.1352)"><path
       style="fill:#c0ab73;fill-opacity:0.80000001"
       d="m 37.858068,130.98485 c -2.332097,-0.0945 -2.553054,-0.71301 -0.357847,-1.00169 0.966424,-0.12709 1.145117,-0.46496 0.699603,-1.32279 -0.238719,-0.45966 -0.294792,-0.80874 -0.138388,-0.86152 0.144623,-0.0488 0.189301,-0.20791 0.09928,-0.35356 -0.09501,-0.15373 0.09854,-0.23735 0.461372,-0.19934 1.120892,0.11742 3.175914,-0.33841 3.32945,-0.73852 0.08183,-0.21325 -0.0467,-0.79767 -0.285626,-1.2987 -0.238926,-0.50103 -0.434411,-1.08278 -0.434411,-1.29277 0,-0.64457 1.117705,-1.16055 3.133148,-1.44639 1.943207,-0.2756 3.481435,-0.86415 3.481435,-1.33206 0,-0.14672 -1.125356,-0.24761 -2.66177,-0.23861 -1.696781,0.01 -2.799875,-0.099 -3.042709,-0.30058 -0.295959,-0.24562 -0.46872,-0.2433 -0.774443,0.0104 -0.726558,0.60299 -1.202665,0.11905 -1.153802,-1.1728 0.04134,-1.09287 0.713823,-2.61419 1.123626,-2.5419 0.208295,0.0367 2.107166,-1.36002 2.232217,-1.64196 0.138462,-0.31219 0.746214,0.3573 0.334526,-0.41203 -0.353481,-0.66049 -0.382134,-1.63682 -0.04804,-1.63682 0.133619,0 0.450807,-0.0798 0.704862,-0.17726 0.15053,0.4476 2.320526,-0.0237 3.519617,-0.0556 1.909424,-0.0358 2.642899,-0.15714 3.175,-0.52529 0.380574,-0.26331 0.909454,-0.55742 1.175289,-0.65358 0.374359,-0.13542 0.464113,-0.39796 0.398078,-1.16444 l -0.08526,-0.9896 1.321714,-0.23287 c 0.726943,-0.12808 6.203277,-0.24731 12.169631,-0.26497 8.733677,-0.0258 11.55888,0.0553 14.495784,0.41613 2.006328,0.24653 3.822031,0.3814 4.034896,0.29971 l 14.517566,1.16094 4.245664,0.15488 c 2.33512,0.0852 5.2577,0.339 6.49463,0.56404 1.23693,0.22503 3.55865,0.41468 5.15937,0.42144 1.83235,0.008 3.20444,0.14338 3.70417,0.36619 l 0.79375,0.35388 -0.66146,0.26579 c -0.6395,0.25697 -0.62633,0.27272 0.39688,0.47453 0.58208,0.1148 2.0406,0.21438 3.24114,0.22128 l 2.18282,0.0126 v 0.70253 c 0,0.69142 -0.0184,0.69861 -1.16336,0.45441 -0.63984,-0.13646 -1.74117,-0.21133 -2.44739,-0.16636 -1.0841,0.069 -1.29675,0.17092 -1.36562,0.65434 -0.10475,0.73534 0.33849,0.85456 2.92585,0.78702 l 2.05052,-0.0535 v 7.34901 7.34901 l -42.531769,0.0677 c -23.392475,0.0373 -43.394975,0.0328 -44.450001,-0.01 z"
       id="path8"
       sodipodi:nodetypes="csssssssssscccscscscsssscscsccsscscssccssssscccccc" /></g></svg>
