<?xml version="1.0" encoding="UTF-8" standalone="no"?>
<svg
   version="1.1"
   x="0px"
   y="0px"
   viewBox="0 0 273.94918 273.9516"
   enable-background="new 0 0 573.9497 573.9516"
   xml:space="preserve"
   id="svg9"
   sodipodi:docname="fall.svg"
   inkscape:version="1.3.1 (9b9bdc1480, 2023-11-25, custom)"
   width="273.94919"
   height="273.9516"
   xmlns:inkscape="http://www.inkscape.org/namespaces/inkscape"
   xmlns:sodipodi="http://sodipodi.sourceforge.net/DTD/sodipodi-0.dtd"
   xmlns="http://www.w3.org/2000/svg"
   xmlns:svg="http://www.w3.org/2000/svg"><defs
   id="defs9" /><sodipodi:namedview
   id="namedview9"
   pagecolor="#ffffff"
   bordercolor="#000000"
   borderopacity="0.25"
   inkscape:showpageshadow="2"
   inkscape:pageopacity="0.0"
   inkscape:pagecheckerboard="0"
   inkscape:deskcolor="#d1d1d1"
   inkscape:zoom="1.4217227"
   inkscape:cx="-13.364069"
   inkscape:cy="-16.880929"
   inkscape:window-width="1856"
   inkscape:window-height="1016"
   inkscape:window-x="0"
   inkscape:window-y="0"
   inkscape:window-maximized="1"
   inkscape:current-layer="svg9" />

<g
   id="Leaf"
   transform="translate(-300.0005,-300)">
	<g
   id="g3">
		<path
   fill="#e86016"
   d="m 573.9497,519.1606 c 0,30.2608 -24.5273,54.791 -54.79,54.791 H 354.7896 c -30.2598,0 -54.7891,-24.5302 -54.7891,-54.791 V 354.79 c 0,-30.2602 24.5293,-54.79 54.7891,-54.79 h 164.3701 c 30.2627,0 54.79,24.5298 54.79,54.79 z"
   id="path2" />
		<path
   fill="#ffffff"
   d="m 542.4722,454.6938 c -2.168,-1.3008 -9.0694,2.9512 -10.8907,0.5205 -0.7548,-1.0058 0.6504,-3.583 0,-4.6679 -1.0918,-1.8184 -4.6044,-0.2705 -6.2246,0 -2.9668,0.4931 -4.705,1.5439 -7.7822,0.5175 -0.5156,-0.1718 -1.3105,-0.0302 -1.5527,-0.5175 -0.2832,-0.5645 1.3496,-2.9082 1.5527,-3.1133 4.707,-4.7071 13.2461,-0.5537 17.6377,-9.3369 0.4873,-0.9746 1.2266,-5.2764 0.5186,-6.2227 -0.9454,-1.2578 -2.5166,0.5635 -2.0743,-2.0752 0.1016,-0.6162 0.6905,-1.0391 1.0362,-1.5566 2.7412,-4.1123 3.9131,-7.6319 3.1123,-12.4483 -0.2334,-1.3965 -0.0567,-3.4394 -1.0371,-4.6679 -0.9737,-1.2149 -5.9366,-2.7061 -6.2256,-4.1495 -0.1465,-0.7294 2.3359,-3.8925 2.5937,-4.6679 0.3985,-1.1963 0.5557,-6.6729 0,-7.7803 -0.3271,-0.6562 -1.3242,-0.8613 -1.5547,-1.5557 -0.3564,-1.0693 1.2715,-3.2529 1.0352,-4.6689 -0.3877,-2.332 -2.287,-6.293 -4.1475,-7.7793 -1.0087,-0.8076 -3.9062,-0.541 -4.6689,-1.5566 -0.124,-0.1631 0.7148,-6.6075 0.5186,-7.7803 -0.5918,-3.5503 -3.6915,-0.6196 -5.1866,-3.1118 -0.792,-1.3199 0.2588,-4.6695 0,-6.2242 -0.3261,-1.9555 -0.6601,-1.3203 -1.5576,-3.1118 -0.2441,-0.4887 -0.1758,-1.1299 -0.5156,-1.5561 -1.9649,-2.4541 -4.1856,0.4516 -5.7061,-2.5943 -0.7871,-1.5698 -1.8056,-7.2602 -4.1494,-7.2602 -1.8711,0 -1.9844,2.6841 -4.6699,0 -0.5811,-0.5816 -3.374,-5.4536 -3.6299,-6.2241 -0.5732,-1.7168 -0.0928,-5.0357 -2.0752,-6.2256 -0.4443,-0.2666 -1.043,-0.0855 -1.5556,0 -5.5166,0.9194 -8.1387,9.0151 -10.3731,13.4858 -0.4189,0.8384 -0.7783,4.604 -2.5928,4.1499 -1.4199,-0.3545 0.7373,-3.2973 -2.0771,-2.5932 -0.5508,0.1377 -2.8252,7.9951 -5.1856,6.2236 -0.4384,-0.3272 -0.3457,-1.0371 -0.5195,-1.5562 -0.9971,-0.332 -2.1133,-0.1855 -3.1113,-0.5175 -2.3516,-0.7837 -9.1016,-10.6285 -10.3731,-10.3741 -0.6123,0.1221 -0.5966,1.1153 -1.0371,1.5552 -1.7187,1.7193 -4.1816,2.7637 -5.707,4.669 -0.3389,0.4267 0.0137,1.4233 -0.5176,1.5556 -1.4951,0.374 -5.4433,-7.7773 -6.7422,-8.8174 -2.79,-2.2309 -1.6953,2.4834 -4.1513,2.0747 -0.4278,-0.0708 -7.5391,-6.9282 -8.8164,-7.7802 -3.3155,-2.21 -6.2637,6.2046 -8.2989,5.186 -0.7754,-0.3857 -2.79,-7.2612 -4.6699,-7.2612 -2.6279,0 -1.7764,5.4839 -5.1846,2.0752 -1.4824,-1.4824 -2.1074,-5.187 -4.667,-5.187 -3.7031,0 -1.041,6.7436 -2.5957,6.7436 -0.5468,0 -0.2744,-1.0674 -0.5175,-1.5566 -0.6573,-1.313 -4.6944,-6.6548 -5.7071,-7.2613 -2.8359,-1.7016 -1.2402,3.1114 -3.1113,3.1114 -0.5469,0 -0.1768,-1.1284 -0.5195,-1.5552 -0.3877,-0.4873 -1.1143,-0.5967 -1.5567,-1.0376 -0.8808,-0.8818 -1.1933,-2.23 -2.0732,-3.1123 -2.2168,-2.2173 -4.8233,-3.6729 -7.2608,-5.7046 -0.1455,-0.1211 -2.2011,-2.6836 -3.1132,-2.0752 -0.6573,0.4385 0,10.4165 0,14.0034 0,0.9502 0.6064,5.6187 0,6.2246 -1.625,1.626 -5.7969,-2.625 -4.6661,4.1499 0.1778,1.0787 0.3526,2.2578 1.0362,3.1119 0.2119,0.2656 3.0722,1.6357 2.5928,2.5937 -0.7071,1.4121 -5.8086,-5.2231 -7.7784,-2.5937 -0.7099,0.9448 2.9766,9.9428 1.5528,10.8925 -0.9493,0.6338 -3.6416,-2.5708 -4.6661,-0.5185 -0.3037,0.605 2.2725,8.5947 -1.5566,10.8921 -1.5,0.8989 -5.1846,-1.5596 -6.2256,-0.5186 -0.6064,0.6055 0,5.2739 0,6.2232 0,1.4804 0.6524,5.0566 -0.5166,6.2246 -0.3877,0.3857 -1.2285,0.082 -1.5556,0.5195 -0.6748,0.8984 2.0752,7.2598 1.0371,9.3359 -1.5811,3.1602 -5.1573,1.6368 -7.7803,2.0743 -1.0791,0.1796 -2.0342,0.8574 -3.1123,1.038 -0.5137,0.085 -1.1895,-0.3662 -1.5567,0 -2.0371,2.0371 4.669,12.9893 4.669,14.0039 0,1.0928 -0.8594,2.0342 -1.0381,3.1124 -0.123,0.7382 0.293,2.5019 -0.5185,3.1113 -1.2911,0.9678 -4.8897,-1.333 -6.2247,-1.5557 -7.6787,-1.2803 -3.2128,2.6445 -5.1865,3.6319 -1.2842,0.6425 -5.1162,-2.2247 -6.2256,-2.5948 -2.2119,-0.7373 -13.9394,-0.0625 -15.5595,1.5557 -2.337,2.3389 1.5127,7.7363 3.1123,9.3369 0.4414,0.4404 1.1679,0.5508 1.5556,1.0371 0.542,0.6777 0.6524,2.3106 0.5196,3.1133 -0.4453,2.6641 -2.4346,8.458 0,10.8906 1.9795,1.9824 1.4423,-1.3789 2.5927,2.0752 0.9258,2.7764 -1.5175,4.8945 -1.0361,7.7803 0.2852,1.7119 2.2773,5.1416 3.6299,6.2236 0.4267,0.3428 1.1279,0.1787 1.5566,0.5205 2.1397,1.711 0.3379,4.126 1.0362,6.2237 0.8408,2.5185 2.9814,1.163 4.1494,3.1113 1.581,2.6338 -2.3819,11.1035 0.5195,14.0049 0.8701,0.8691 5.7246,0.5371 6.2256,1.0371 1.0537,1.0547 -0.6963,4.7051 0.5156,6.2256 2.1514,2.6855 7.1885,1.4619 9.3379,4.1484 1.6445,2.0537 -0.2353,5.5195 0.5186,7.7783 0.5927,1.7832 1.958,3.2832 3.1123,4.6699 0.3994,0.4776 0.5517,1.167 1.0381,1.5557 2.705,2.1641 9,3.1699 12.4482,2.5938 1.0771,-0.1797 2.0332,-0.8584 3.1123,-1.0362 2.0176,-0.3379 4.2051,0.335 6.2217,0 1.874,-0.3134 6.3164,-1.4218 7.7803,-2.5947 2.6855,-2.1475 3.2177,-7.8848 4.6699,-9.335 1.0234,-1.0254 7.0879,-0.8701 7.7793,0.5176 1.0185,2.0362 -5.5537,9.5498 -6.2217,10.8926 -0.2461,0.4883 -0.1787,1.1279 -0.5205,1.5557 -1.293,1.6152 -3.1172,1.5673 -4.1485,3.6298 -2.041,4.0821 0.793,3.5704 2.0733,5.7061 0.5156,0.8594 -0.3809,11.6865 1.5566,15.5605 1.9053,3.8096 8.4102,3.044 11.9297,3.6319 4.4043,0.7344 8,3.9258 12.4492,4.667 2.3584,0.3926 5.9668,-0.6241 7.7793,-2.0752 0.4873,-0.3887 0.503,-1.2344 1.0371,-1.5547 1.6817,-1.0088 4.7579,1.2217 9.336,-2.5947 2.7344,-2.2764 2.4492,-5.6534 4.1513,-7.7793 0.3877,-0.4873 1.1143,-0.5967 1.5538,-1.0371 0.4404,-0.4414 0.5976,-1.1153 1.038,-1.5557 2.3995,-2.4004 9.3301,-3.1074 10.8926,-4.6699 1.5811,-1.5791 0.2949,-6.0039 0,-7.7783 -0.5967,-3.586 3.4375,-5.5762 1.5567,-9.3379 -2.0498,-4.0967 -10.375,-7.0928 -10.375,-11.9297 0,-4.9434 4.1289,-8.0401 6.6435,-11.7871 l 3.7315,4.5254 c 3.7773,3.7793 5.4853,9.4179 7.7802,14.0048 1.3116,2.626 3.125,4.7422 5.1866,14.0039 2.4541,4.9122 3.2451,10.6436 5.705,15.5616 1.462,2.9248 4.1338,10.8037 4.668,14.0039 0.084,0.5127 -0.165,1.0644 6.7422,12.4492 0.7803,1.1699 1.1006,3.6934 2.0762,4.667 0.3867,0.3867 1.0088,0.5195 1.5556,0.5195 1.3037,0 2.0625,-1.0332 3.1114,-1.5556 3.2841,-1.6417 3.0732,-3.7061 1.5556,-6.7422 -2.1103,-4.2207 -5.0224,-6.9366 -6.2226,-9.3379 -1.7989,-3.5948 -3.3916,-7.2989 -5.1866,-10.8916 -0.83,-1.6602 -2.2832,-3.0088 -3.1142,-4.669 -2.2158,-4.4345 -2.417,-9.5049 -4.667,-14.0049 -0.5586,-1.1142 -1.5176,-1.9961 -2.0733,-3.1132 -2.1699,-4.334 -2.8652,-9.3955 -14.0058,-32.1573 1.3476,-1.3476 17.1182,1.0411 18.1533,4.1504 0.5391,1.6133 -1.6582,10.7403 0.5195,14.0059 1.92,2.8808 4.0801,0.875 6.2247,2.5928 1.9677,1.5732 1.7851,4.705 4.6679,5.1865 8.6641,1.4443 8.7871,-3.2822 14.0039,-4.1494 2.3916,-0.3994 14.5225,0 15.5615,-1.0371 0.3848,-0.3877 0.1758,-1.1299 0.5176,-1.5567 0.3877,-0.4873 1.167,-0.5498 1.5557,-1.0361 0.3408,-0.4277 0.1767,-1.1299 0.5195,-1.5567 1.8946,-2.3671 5.2901,-2.0341 6.2237,-2.5937 1.3427,-0.8057 1.9931,-3.5518 3.1113,-4.669 2.1972,-2.1943 7.7832,-3.246 9.3359,-5.1865 1.1162,-1.3945 0.167,-6.3281 1.0401,-7.7793 1.2265,-2.0488 4.5918,-0.5537 6.2226,-2.5947 2.1299,-2.6611 -2.2539,-12.5537 -4.6689,-14.0049 z m -10.6133,11.9151 c -1.2393,0.1728 -2.4385,0.3388 -3.6055,0.498 0.002,0.007 0.002,0.007 0.003,0.0127 0.4501,0.2764 0.2236,0.1455 0.6679,0.4063 6.2686,3.6787 7.6221,5.705 6.7871,6.958 -12.623,-5.3711 -12.665,-5.5489 -12.7021,-5.7364 -0.0186,-0.1142 -0.0332,-0.1933 -0.0567,-0.3564 -0.0146,-0.0957 -0.0224,-0.1319 -0.0254,-0.1582 0,0.001 0.003,0.0205 0.0167,0.0566 -0.0469,-0.1484 -0.0704,-0.2998 -0.0918,-0.4492 -13.1319,1.7549 -21.5293,2.6514 -29.6612,2.9902 2.4405,3.2637 3.7461,4.9082 4.5283,5.793 0.5782,0.0498 0.3506,0.0449 0.0205,0.0225 0.6924,0.7802 0.9756,0.9658 1.2803,1.1601 10.1045,6.3682 10.6426,6.6983 11.0235,6.9297 l 0.0468,0.0293 c 10.8711,3.1943 11.6407,4.7344 11.167,6.1621 -10.6963,-0.7363 -13.5879,-1.6826 -13.6543,-1.6738 -2.5185,-0.3223 -1.3506,-0.4268 -6.7881,-3.8555 -5.2294,-3.3008 -7.0673,-4.4765 -7.4082,-4.8183 -4.6738,-6.8399 -6.1289,-9.001 -6.8642,-10.0381 -2.166,-0.1026 -4.2373,-0.1553 -6.1973,-0.1983 5.2832,5.2246 7.7217,8.0352 8.5352,8.9629 3.2109,3.6719 5.9287,14.586 5.0136,13.3926 -6.3076,-8.2148 -10.0419,-11.5098 -10.3515,-11.835 -3.5069,-3.6836 -6.836,-7.7226 -6.9522,-7.955 l -0.1972,-0.0411 c -0.7725,-0.1552 -1.4141,-1.3505 -1.8106,-2.666 -2.1933,-0.082 -4.1611,-0.2138 -5.8584,-0.4804 -1.3291,-0.2217 -2.6357,-0.211 -5.2353,-0.0284 -3.128,0.2198 -4.1416,0.2588 -5.7598,0.1211 -0.2637,-0.0214 -0.5078,-0.0918 -0.7432,-0.1816 -0.4091,0.3828 -0.9336,0.6504 -1.5322,0.7207 -0.8379,0.0977 -1.584,0.1787 -2.2832,0.249 -0.0195,0.6582 -0.2676,1.3115 -0.7646,1.8203 -1.1846,1.2139 -1.8907,2.4366 -3.3819,5.5928 -1.0547,2.2305 -1.6006,3.2813 -2.4218,4.5117 -0.5665,0.8506 -1.0665,1.3448 -2.2168,2.3321 -0.6094,0.5263 -0.8565,0.7578 -1.0684,1.0127 -0.5918,0.7089 -1.1152,1.3671 -1.7441,2.1962 3.3525,7.0352 3.456,7.0538 4.1543,8.1036 4.6367,9.8955 4.1064,8.5859 4.5742,9.2002 2.1093,7.8183 0.8906,9.038 -0.6133,9.038 -4.3955,-6.6279 -4.6973,-7.0634 -5.0293,-7.7304 -2.3809,-5.5869 -2.794,-6.4844 -3.4619,-7.4854 -0.2383,-0.3545 -0.1182,-0.1826 -0.3574,-0.5166 -2.545,-3.1689 -2.6446,-3.4472 -2.7227,-3.7392 -0.2891,-0.2754 -0.1699,-0.209 -0.3926,-0.3418 -0.1963,-0.2051 -0.3642,-0.4004 -0.5273,-0.5938 -0.8057,1.0713 -1.4375,1.8721 -2.1787,2.7617 -0.1582,0.1885 -0.2969,0.4141 -0.6358,1.0186 -0.0381,0.0664 -0.0654,0.1133 -0.1015,0.1758 0.0976,0.3183 0.1836,0.6504 0.2597,0.998 1.3946,8.4483 2.5127,10.8604 2.1075,14.6826 -0.253,2.4014 -0.6231,4.9502 -1.0118,7.2803 -0.29,1.749 -0.7802,3.0244 -1.9453,5.5352 -1.622,6.4394 -2.8574,7.6445 -4.3603,7.6211 0.3847,-11.9893 0.749,-12.9444 0.9336,-14.0518 -0.2676,-13.3848 -0.375,-15.2246 -0.4805,-15.9746 -1.3545,1.8965 -3.0313,4.1074 -3.752,4.8262 -1.0888,1.0918 -2.0703,1.8584 -4.1787,3.3691 -0.0791,0.0566 -0.1435,0.1045 -0.2207,0.1581 0.293,1.2773 0.4961,2.5762 0.625,3.8789 0.1006,0.999 0.1319,2.0049 0.169,3.0089 0.0215,0.4911 0.006,0.9824 0.007,1.4727 -2.2783,12.9209 -3.8184,13.6923 -5.2461,13.2138 -0.4277,-7.4531 -0.0625,-11.7197 -0.2617,-15.914 -0.0244,-0.4873 -0.0654,-0.9834 -0.1133,-1.4825 -0.5967,0.627 -1.2734,1.3555 -2.1787,2.3379 -8.5039,7.9268 -13.7422,10.5039 -14.5762,9.253 3.75,-5.7735 5.752,-7.7139 10.5723,-12.9463 1.7295,-1.876 2.6738,-2.876 3.7734,-3.9756 0.2823,-0.2822 0.5547,-0.541 0.8389,-0.7949 -0.0869,-0.1827 -0.1709,-0.3692 -0.2686,-0.5459 -1.3154,-0.2032 -2.6835,-0.3614 -4.1484,-0.4668 -11.9141,-0.2198 -13.1348,-1.4375 -13.1348,-2.9434 6.8936,-2.7402 10.211,-2.706 13.5235,-2.4893 3.7207,0.2657 7.001,0.8038 10.1279,1.7237 0.0186,0.005 0.0342,0.0156 0.0518,0.0224 0.2841,-0.2451 0.541,-0.4804 0.79,-0.7314 1.4815,-1.7324 2.8047,-3.6035 4.1035,-5.4766 0.1192,-0.2402 0.1406,-0.5293 0.2139,-0.791 0.0957,-0.3164 0.2432,-0.6142 0.4209,-0.9043 -1.1787,-0.3515 -2.8623,-0.6054 -5.1299,-0.7256 -10.9385,1.2041 -13.2529,0.2178 -13.7275,-1.208 4.2031,-4.2715 10.8847,-3.0068 15.2304,-2.7763 h 0.002 c 3.4521,0.1845 5.6006,0.0507 7.2178,0.5429 0.0996,-0.1347 0.2031,-0.2666 0.3193,-0.4072 1.1699,-1.4043 2.0576,-2.583 4.0547,-5.3281 0.29,-0.3965 0.5517,-0.7549 0.7998,-1.0957 0.0517,-0.2627 0.1064,-0.5332 0.1689,-0.8145 0.0567,-0.2597 0.0762,-0.3369 0.2041,-0.875 0.2852,-1.1982 1.3243,-2.0088 2.4942,-2.0761 0.1875,-0.2325 0.3779,-0.4649 0.5762,-0.7042 0.4697,-0.5595 0.8613,-0.9306 1.6992,-1.6513 0.7715,-0.6631 1.0429,-0.9297 1.2402,-1.2266 0.625,-0.9385 1.0869,-1.8281 2.0283,-3.8183 1.044,-2.2071 1.7871,-3.6504 2.5879,-4.8409 -1.7939,-0.081 -3.3779,-0.3203 -4.7422,-0.7744 -6.8965,-1.6142 -5.5703,-1.3252 -6.3291,-1.4531 -2.2412,-0.373 -4.1191,-0.8975 -6.7431,-1.8857 -0.1104,0.1748 -0.2354,0.3418 -0.3897,0.4931 -18.668,12.5928 -18.8935,12.6641 -19.0683,12.752 -1.004,0.501 -1.8028,0.9922 -3.6211,2.1787 -1.9922,1.3017 -2.9102,1.8633 -4.1612,2.4892 -7.5215,2.7745 -9.2314,3.3448 -10.8525,4.1309 -0.4785,0.3877 -0.6231,0.5 -0.835,0.6436 -1.5732,0.7138 -2.0185,0.7607 -2.4668,0.7431 -0.249,-0.0146 -0.1435,-0.005 -0.3154,-0.0234 -0.5781,0.4433 -0.8213,0.5947 -1.0908,0.7295 -18.8994,5.8125 -20.4414,5.039 -20.917,3.6133 10.7978,-5.4366 14.7578,-6.6934 18.4424,-8.4659 0.04,-0.0293 0.0849,-0.0625 0.2207,-0.1757 3.3301,-1.1954 3.2256,-1.2051 3.3965,-1.1875 0.1084,-0.0909 0.2216,-0.1788 0.3349,-0.2637 0.2432,-0.1787 0.4844,-0.332 0.7569,-0.4649 8.4765,-3.0937 9.6142,-3.5117 10.8906,-4.1503 1.001,-0.5 1.8008,-0.9922 3.6181,-2.1788 6.8711,-3.3671 7.0987,-3.4394 7.2745,-3.5263 4.5586,-2.2783 9.1123,-5.5889 13.333,-9.5469 -4.6875,-1.9541 -6.8955,-2.7148 -9.5909,-3.165 -3.2675,-0.545 -5.8701,-1.0108 -11.7138,-2.083 -0.9141,-0.167 -1.7412,-0.3194 -2.5098,-0.459 -0.292,0.3115 -0.6504,0.5693 -1.081,0.7197 -1.5489,0.5459 -2.875,1.3047 -9.9024,5.5303 -15.5781,5.6894 -15.9541,5.6806 -16.291,5.7392 -14.3994,0.5528 -17.0732,-1.7871 -15.6182,-2.1689 20.7422,-3.4307 23.6944,-4.9854 29.1016,-8.2373 0.2129,-0.128 2.3984,-1.4463 3.0322,-1.8272 0.8203,-0.4912 1.5186,-0.9043 2.1592,-1.2773 -0.1719,-0.0283 -0.3428,-0.0567 -0.5176,-0.086 -0.6963,-0.1162 -12.9355,-4.8388 -17.6758,-6.7636 -1.4335,-0.005 -3.0048,0.0703 -5.0556,0.2275 -0.8047,0.0615 -4.5117,0.3818 -5.5322,0.46 -1.8379,0.1552 -3.6797,0.2187 -5.5225,0.25 -13.8018,-3.0762 -14.5732,-4.6192 -14.0977,-6.0469 l 9.2559,0.252 c 3.293,0.5341 6.6426,0.3544 9.9531,0.1132 0.4737,-0.0361 1.5733,-0.1269 2.6817,-0.2197 -1.8721,-1.3584 -2.251,-1.626 -3.0782,-2.1797 -0.3945,-0.2617 -1.164,-0.7041 -2.8047,-1.624 -2.5488,-2.6777 -4.6669,-4.1221 -6.3134,-4.9883 -0.1953,0.1514 -0.4053,0.2861 -0.6465,0.3818 -2.502,0.9952 -5.1504,1.5782 -8.1592,1.8702 -9.4209,0.2588 -10.6387,-0.96 -10.6387,-2.4649 5.5293,-2.4394 8.9932,-2.6572 12.1289,-3.1865 -0.4765,-0.2373 -0.9531,-0.4795 -1.4326,-0.7119 -3.0468,-1.5069 -5.5293,-3.8457 -7.8056,-6.3223 -6.5196,-8.8193 -6.1817,-10.5107 -4.9307,-11.3437 l 15.1719,12.7939 c 1.7793,0.8789 3.5556,1.7539 5.3261,2.6475 3.2764,1.6523 5.2325,2.7119 6.0547,3.3701 0.253,0.2031 0.4571,0.4326 0.6436,0.6748 -4.6192,-10.7393 -3.8291,-11.7158 -2.586,-12.5469 l 7.3184,9.9424 c 0.7354,2.6865 1.6943,5.2432 2.2227,6.6016 0.1084,0.2783 0.1543,0.5625 0.1689,0.8466 0.5859,0.4024 1.209,0.8516 2.7676,1.9815 2.6084,1.8906 4.0195,2.8223 5.5791,3.6025 0.4443,0.2227 4.5127,1.836 9.4014,3.7325 0.5576,0.2168 1.1123,0.4316 1.6562,0.6416 -0.4707,-1.3721 -1.2656,-2.9473 -2.5605,-5.2344 -1.0547,-1.8653 -1.3516,-2.4043 -1.8184,-3.336 -0.4971,-0.998 -0.7607,-1.5703 -1.6445,-3.5546 -3.6885,-6.7403 -3.3506,-8.4317 -2.0967,-9.2657 l 8.6142,10.3848 c 0.4053,0.8164 0.6836,1.3164 1.6856,3.0908 2.5146,4.4444 3.5244,6.8028 3.8018,9.999 0.005,0.0674 -0.003,0.1319 -0.003,0.1963 0.1739,0.0664 0.3389,0.128 0.4795,0.1797 0.2461,0.0889 0.4375,0.1611 0.5694,0.2051 -0.0704,-0.0244 0.0195,0.006 -0.1836,-0.0293 3.2685,0.5449 5.8701,1.0117 11.7148,2.083 5.8154,1.0664 8.3984,1.5293 11.626,2.0664 0.2451,0.0401 0.4844,0.085 0.7217,0.1289 -0.2862,-0.9873 -0.6661,-1.9795 -1.1739,-3.0029 -3.0996,-5.791 -6.25,-11.8418 -4.998,-12.6768 1.251,-0.8359 6.3965,5.8623 7.4961,6.8858 3.2949,3.0605 4.4297,7.2051 4.8359,10.6035 1.3076,0.4951 2.7998,1.1045 4.6172,1.8682 5.1777,2.1757 7.459,2.9853 10.2861,3.455 8.2061,2.2305 11.2334,2.2178 12.2393,2.1934 0.1973,-0.006 0.3935,-0.0176 0.5908,-0.0264 -0.333,-2.7344 -1.3476,-4.914 -4.0898,-9.5068 -1.3008,-2.1768 -1.8594,-3.1524 -2.5039,-4.4424 -2.4102,-5.7988 -2.6026,-6.166 -2.7432,-6.583 -0.4404,-0.96 -0.8584,-1.8711 -1.2676,-2.7627 -1.9678,-0.3799 -4.5058,-1.2119 -8.1328,-2.5381 -7.5312,-2.7568 -7.5976,-2.7783 -9.0381,-3.0176 -17.1289,-7.0058 -20.0908,-7.3203 -22.4687,-8.0664 -3.4737,-1.0908 -4.9405,-1.6162 -6.8291,-2.5586 -3.8418,-1.9209 -9.3653,-5.6367 -12.9746,-8.6425 -10.8623,-10.5997 -13.8047,-10.1309 -12.9688,-11.3829 13.6211,5.2237 15.0127,5.9961 16.4561,7.1993 3.2998,2.749 8.4775,6.2324 11.9228,7.9541 1.5381,0.7705 2.8291,1.2314 6.0244,2.2353 17.0967,5.8613 18.71,7.3848 21.7344,7.8887 7.4443,2.3281 9.4268,3.0615 10.0117,3.2744 1.1992,0.3145 2.2295,0.583 3.1328,0.8174 -6.2041,-13.582 -7.2714,-16.0918 -8.0341,-17.3057 -1.002,-1.5986 -1.4424,-2.3398 -1.9424,-3.3388 -0.292,-1.6768 -0.5782,-3.2471 -0.8604,-4.7217 -0.5888,-0.1465 -1.1816,-0.3506 -1.8164,-0.6524 -0.584,-0.2783 -0.7773,-0.3847 -1.9824,-1.0703 -0.5742,-0.3271 -0.8731,-0.4814 -0.9756,-0.5156 -10.4824,-3.4941 -18.9141,-7.7354 -25.7803,-13.459 -0.7959,-0.6621 -1.6464,-1.3027 -2.6933,-2.0351 -0.6143,-0.4317 -2.9112,-1.9913 -2.7354,-1.8721 -8.8955,-8.8164 -8.5566,-10.5078 -7.3056,-11.3428 7.5156,5.2871 9.332,6.1299 10.3847,6.8496 -0.206,-0.1396 2.128,1.4473 2.7813,1.9043 1.1621,0.8154 2.1308,1.543 3.0547,2.3125 6.2754,5.2295 14.1259,9.1797 24.0156,12.4766 0.332,0.1103 1.0019,0.4492 1.6758,0.8066 -3.6651,-16.0683 -6.4385,-16.1836 -7.6983,-19.2012 -1.1025,-2.7578 -2.0312,-4.8955 -2.8213,-6.5927 -2.6845,0.6885 -6.6132,-0.253 -11.3144,-2.2588 -13.1768,-8.8418 -13.5147,-10.5322 -12.6797,-11.7842 7.8877,3.2822 11.3115,5.2773 14.8184,6.7754 1.8769,0.8013 3.6523,1.4126 5.125,1.7563 0.4433,0.004 0.8134,0.003 1.1318,-0.002 -0.6768,-1.0986 -1.1377,-1.7593 -1.5205,-2.6768 -0.958,-2.2959 -1.3985,-3.3003 -1.9942,-4.4917 -0.2441,-0.4887 -0.5371,-0.9121 -1.29,-1.9048 -0.6797,-1.477 -1.209,-2.6313 -1.6328,-3.5595 -1.3672,0.1289 -2.8604,0.1206 -4.4717,-0.02 -13.8877,-4.2911 -16.874,-6.6485 -16.3984,-8.0738 5.2597,0.6743 11.5273,3.2237 11.4121,3.1104 4.4609,-0.5371 6.7412,-0.9907 7.8769,-1.3926 -0.6699,-0.5366 -1.6894,-0.7705 -1.7431,-0.8853 -3.5655,-5.0673 -3.8096,-5.8305 -4.2071,-7.5551 -0.206,-0.8921 -0.3095,-1.2447 -0.4394,-1.503 -5.8516,-10.2954 -5.5108,-11.9853 -4.2617,-12.8208 l 9.1338,10.3858 c 3.5351,6.8213 4.0703,7.8281 4.705,9.1797 0.0303,0.0654 0.0567,0.1211 0.086,0.1841 1.5664,-0.6778 3.3994,-1.4434 3.7851,-2.2134 6.794,-10.0703 6.5254,-9.6099 6.7305,-9.5923 0.1152,0.009 0.1895,0.0176 0.3408,0.0366 l 0.0713,0.0103 h 0.004 c -0.9668,8.7973 -1.8789,10.7143 -2.7451,12.4423 -1.6357,3.2598 -2.8184,5.313 -3.7949,6.2881 -0.3447,0.3438 -0.7393,0.6363 -1.1563,0.9048 0.3233,0.7124 0.5987,1.1953 1.044,1.7827 0.958,1.2632 1.375,1.8687 1.8213,2.7618 0.6689,1.3383 1.1416,2.4179 2.1494,4.8281 0.0469,0.1113 0.0869,0.206 0.1299,0.3115 2.8252,-7.061 3.8252,-12.7661 3.2353,-18.2212 -0.1611,-1.4951 0.9199,-2.8384 2.415,-3.0005 1.4952,-0.1606 2.837,0.9199 3,2.4155 0.8223,7.606 -0.9375,15.4468 -4.8007,23.1729 -0.1123,0.2285 -0.1729,0.417 -0.3565,1.1221 -0.0205,0.291 -0.0781,0.5537 -0.1435,0.8095 0.2783,0.418 0.4336,0.6885 0.5947,1.0108 0.9883,1.9746 1.6894,3.5742 3.1865,7.1621 2.9805,9.0967 4.9414,15.2324 6.2686,19.4521 2.7646,-8.3545 2.7676,-9.4687 2.6474,-11.8173 -0.0703,-1.3936 -0.0927,-1.9649 -0.0927,-2.7149 0,-3.9092 -0.0254,-7.0859 -0.0987,-14.0957 -0.1015,-15.4883 1.1172,-16.708 2.6211,-16.708 2.7227,6.5425 2.7471,9.5947 2.8223,16.6514 0.0762,7.0263 0.1015,10.2177 0.1015,14.1523 0,0.6221 0.0215,1.1406 0.0879,2.4365 -1.5888,10.3155 -1.6582,10.4991 -1.7841,10.8741 -0.4424,1.333 -1.0254,2.9306 -1.6231,4.3613 -0.8594,2.0605 -1.539,3.3965 -2.3857,4.2519 0.624,2.0176 0.7881,2.4795 1.2168,3.3379 0.3965,0.7901 0.7763,1.4307 1.6845,2.8789 1.0098,1.6094 1.4473,2.3457 1.9473,3.3448 l 1.1777,4.0214 c 3.6963,6.918 5.9825,10.7032 7.3809,13.0069 0.7236,-1.0703 1.4463,-2.5772 2.1279,-4.4199 1.1172,-3.0313 2.0635,-6.8164 2.5157,-9.5342 0.5664,-3.3936 1.5673,-5.8154 4.1464,-10.9053 3.9307,-13.7832 3.9873,-14.5488 4.1514,-15.5469 3.3086,-25.0278 3.5986,-25.8471 4.3281,-27.5786 0.3887,-8.9482 1.4297,-10.3232 2.918,-10.5303 l 2.1025,12.6397 c -3.6338,24.4985 -3.8047,25.3354 -3.9746,26.3638 -1.081,9.6006 -2.0674,11.9785 -4.667,17.1113 -2.33,4.6016 -3.1865,6.6738 -3.6328,9.3418 -0.5049,3.0342 -1.5332,7.1435 -2.7812,10.5254 -0.835,2.2656 -1.7569,4.1826 -2.7852,5.6816 -0.6347,0.9248 -1.3183,1.6944 -2.0605,2.2969 1.4248,4.376 1.623,5.0244 1.9619,6.333 1.1406,2.9258 1.6543,3.8232 2.8857,5.8857 1.585,2.6553 2.2735,3.8848 3.0127,5.5157 0.6446,1.4209 1.1133,2.8037 1.4405,4.1963 0.039,-0.0274 0.0722,-0.0596 0.1123,-0.084 0.9882,-0.5987 1.7382,-1.2227 3.5068,-2.8389 0.8848,-0.8105 1.3223,-1.2012 1.874,-1.6601 0.5283,-0.4395 0.9502,-0.7032 1.8184,-1.1905 0.7031,-0.3945 0.9433,-0.5508 1.1123,-0.7187 0.1133,-0.1123 0.2402,-0.3164 0.5615,-0.9151 0.5742,-1.0722 0.8897,-1.5761 1.5117,-2.1972 0.2637,-0.2637 0.5459,-0.4756 0.8565,-0.6631 0.1933,-0.1143 0.0869,-0.0537 0.3125,-0.1768 0.0224,-0.1006 0.007,-0.0332 0.0527,-0.2031 0.1113,-0.3975 0.2725,-0.7715 0.5137,-1.1338 0.6748,-1.0127 1.1836,-1.6582 2.623,-3.3955 1.6133,-1.9473 2.3242,-2.916 2.9131,-4.0937 0.0254,-0.0489 0.0488,-0.1016 0.0742,-0.1514 -0.0488,-0.0361 -0.0986,-0.0674 -0.1474,-0.1035 -2.5186,-2.0616 -3.002,-2.7403 -3.4707,-2.9229 -4.8633,-3.6719 -5.0567,-3.8867 -5.2911,-4.1191 -7.0214,-16.1748 -5.8037,-20.209 -4.2978,-20.209 4.4004,11.9316 3.8789,12.0898 8.1494,16.3603 3.9805,3.2207 6.1445,4.962 7.419,5.9366 1.8388,-4.1797 3.5371,-8.6504 5.1953,-13.626 0.2617,-0.7832 0.416,-1.1943 1.0683,-2.8721 0.8604,-2.2168 1.2324,-3.3457 1.4239,-4.4941 0.163,-0.9776 0.3574,-1.708 0.8339,-3.3115 0.8409,-5.501 1.6192,-3.6485 1.6162,-3.9219 -0.005,-0.4356 -0.8613,-0.875 -0.8281,-1.3037 -0.5322,-0.6016 -1.0918,-1.2071 -1.6953,-1.8418 -0.624,-0.6553 -1.2744,-1.3203 -2.0937,-2.1426 -0.3067,-0.3096 -1.7207,-1.7207 -2.1026,-2.1055 -1.7529,-1.7636 -2.9551,-3.0361 -4.1045,-4.3818 -7.041,-12.749 -6.2715,-14.291 -4.8427,-14.7676 l 8.9824,11.2305 c 1.0429,1.2197 2.164,2.4043 3.8281,4.081 0.376,0.377 1.7861,1.7852 2.1006,2.1026 0.6094,0.6133 1.1308,1.1416 1.6191,1.6494 0.5811,-2.1211 1.4756,-4.6094 3.0762,-8.8301 2.0869,-5.5176 2.9707,-8.2412 3.4648,-11.209 0.0547,-0.33 0.0957,-0.6533 0.128,-1 -0.7422,-0.1836 -1.8262,-0.4238 -1.7012,-0.3935 -2.4365,-0.6016 -4.2822,-1.753 -6.3994,-4.292 -2.1006,-2.1377 -2.4873,-2.7412 -2.9356,-3.6397 -3.2587,-7.1826 -2.9209,-8.8725 -1.6699,-9.707 l 6.541,7.2725 c 1.3828,1.6142 1.7803,2.0244 2.2481,2.5859 1.373,1.6484 2.207,2.1689 3.5215,2.4932 0.1455,0.0361 0.3037,0.0713 0.5185,0.1181 l 0.002,0.001 c 0.0361,-1.0693 0.1123,-1.8584 0.2646,-2.7744 0.126,-0.75 0.2559,-1.3169 0.5635,-2.5474 0.2744,-1.0903 0.3809,-1.5605 0.4756,-2.1201 -0.0371,-25.9526 1.1816,-27.1714 2.6855,-27.1714 v -0.002 c 1.4932,9.4209 2.2901,15.4731 2.6641,19.5698 0.5527,-0.5054 1.1484,-0.9722 2.0185,-1.6001 3.961,-3.8867 5.1241,-5.3379 6.5508,-4.8628 -4.2431,9.9146 -4.7275,10.3013 -5.1582,10.7324 -0.1992,0.2002 -0.3974,0.4175 -0.7461,0.813 -1.1836,1.3491 -1.6533,1.8311 -2.5048,2.4165 -0.0391,0.3579 -0.085,0.6875 -0.1368,0.9995 -0.1279,0.752 -0.2558,1.3169 -0.5654,2.5479 -0.2725,1.0898 -0.3799,1.5615 -0.4746,2.1191 -0.1777,1.0772 -0.2188,2.0186 -0.2207,4.2246 -0.004,2.5039 -0.0518,3.6426 -0.2979,5.1123 -0.1972,1.1856 -0.4414,2.3155 -0.7656,3.5245 0.8623,-0.8995 1.7051,-1.9063 2.544,-3.042 1.6054,-2.1729 2.3925,-3.4668 5.4628,-8.7647 4.17,-6.7129 5.8584,-7.0508 7.1133,-6.2173 -5.5879,14.4478 -6.4209,15.815 -8.1933,18.2154 -2.5088,3.3994 -5.1494,5.9716 -8.2666,7.8203 -0.4756,0.2812 -1.001,0.4004 -1.5147,0.375 -0.042,0.1113 -0.081,0.2168 -0.124,0.33 -1.3486,3.5889 -2.7891,7.1661 -3.4902,10.9493 l 0.0107,0.0761 c 0.0391,0.3174 0.0537,0.4746 0.0566,0.7256 0.007,0.4414 -0.0498,0.874 -0.1962,1.3184 -0.1407,0.4238 -0.3438,0.791 -0.5948,1.1367 -0.1709,0.2305 -0.0664,0.0947 -0.3213,0.4043 l -0.0175,0.0205 c 0.0752,0.5293 0.0654,1.0635 0.008,1.5928 -0.1153,0.8096 -0.2617,1.4648 -0.5489,2.4804 3.1924,-2.3964 4.8047,-3.6474 5.8067,-4.1474 26.7598,-22.1113 27.1006,-21.3535 28.3516,-20.5186 -4.295,9.8457 -11.8721,13.7842 -16.21,17.1778 -4.0928,3.2041 -6.4248,6.9091 -11.0547,9.3076 -5.917,4.6162 -7.1172,5.1152 -8.458,5.3008 -0.1143,0.0166 -0.2246,0.0117 -0.3359,0.0136 -0.2276,0.6504 -0.4981,1.376 -0.835,2.2432 -0.6113,1.5791 -0.7568,1.959 -0.9775,2.624 -1.8731,5.6162 -3.7998,10.6367 -5.9258,15.335 1.0293,-0.1953 2.541,-0.6895 4.4179,-1.4561 1.4668,-0.5996 6.0127,-2.6523 6.1739,-2.7207 11.4228,-7.9609 11.8926,-4.8906 12.1689,-5.0488 13.5528,-7.2178 13.9903,-7.5176 14.6553,-7.8506 14.9639,-8.4453 16.6543,-8.1064 17.4883,-6.8555 -4.7061,6.3077 -8.294,8.3477 -15.0518,11.7276 -9.8545,4.5332 -10.8994,5.2744 -12.0498,6.124 l -6.7685,3.2793 c -6.3213,3.292 -8.0274,3.5147 -8.2979,3.6299 -0.0762,0.0332 -4.6826,2.1103 -6.2578,2.7549 -3.2256,1.3203 -5.6191,2.0117 -7.5469,1.9521 -0.5205,-0.0156 -0.9961,-0.1855 -1.4023,-0.4512 -0.7207,1.2676 -1.5899,2.4141 -3.1211,4.2618 -0.7266,0.8603 -1.4297,1.7353 -2.0899,2.6494 -0.0781,0.2383 -0.1162,0.5019 -0.1865,0.7461 -0.1377,0.4619 -0.3476,0.8896 -0.667,1.29 -0.3037,0.3809 -0.6504,0.6729 -1.0429,0.9219 -0.2237,0.1435 -0.3692,0.2187 -0.6954,0.3828 -0.0312,0.0176 -0.0673,0.0342 -0.0976,0.0518 -0.006,0.004 -0.008,0.007 -0.0117,0.0107 -0.1787,0.2568 -0.3213,0.5352 -0.4707,0.8096 -0.5743,1.0742 -0.8926,1.5742 -1.5137,2.1972 -0.6436,0.6446 -1.1563,0.9776 -2.2988,1.6172 -0.5801,0.3252 -0.8067,0.4668 -0.9961,0.624 -0.4659,0.3887 -0.8594,0.7393 -1.6836,1.4952 -0.1807,0.166 -0.3438,0.3115 -0.5078,0.4609 0.5312,-0.0293 1.1552,-0.0703 1.9375,-0.126 3.0136,-0.2129 4.6289,-0.2265 6.5127,0.0879 1.5927,0.251 2.0214,0.3301 3.9296,0.5469 4.2774,0.4824 8.5889,0.6484 12.8956,0.6348 4.5537,-9.8956 6.5478,-9.7852 11.914,-12.5987 8.3379,-4.7236 10.0264,-4.3847 10.8623,-3.1338 -5.2334,6.3526 -8.0068,7.7862 -8.334,7.9571 -2.1152,1.1338 -4.2558,2.2705 -6.1543,3.7529 -1.5078,1.873 -2.5088,3.1035 -3.1943,3.9336 0.0566,-0.003 0.1152,-0.003 0.1719,-0.005 6.3662,-0.2226 12.7207,-0.7851 19.041,-1.5732 1.375,-0.1758 2.6396,-0.3399 3.8242,-0.4912 -0.2461,-0.4327 -0.3828,-0.9356 -0.3564,-1.4688 0.1103,-2.3008 1.3652,-4.1904 3.3554,-5.6748 6.2881,-2.9131 7.8291,-2.1426 8.3067,-0.7148 -6.3037,5.4316 -6.1748,5.6621 -6.2227,6.6503 -0.009,0.1963 -0.041,0.3877 -0.0908,0.5704 9.6133,-1.2247 10.459,-1.3008 11.4005,-1.4971 4.9678,-1.0303 13.5536,-0.1016 14.0283,1.3252 -11.5421,3.6592 -12.1876,3.8906 -13.1368,4.0469 z"
   id="path3" />
	</g>
</g>


</svg>
