<?xml version="1.0" encoding="UTF-8" standalone="no"?>
<svg
   version="1.1"
   x="0px"
   y="0px"
   viewBox="0 0 273.94918 273.95111"
   enable-background="new 0 0 573.9497 573.9516"
   xml:space="preserve"
   id="svg9"
   sodipodi:docname="spring.svg"
   inkscape:version="1.3.1 (9b9bdc1480, 2023-11-25, custom)"
   width="273.94919"
   height="273.95111"
   xmlns:inkscape="http://www.inkscape.org/namespaces/inkscape"
   xmlns:sodipodi="http://sodipodi.sourceforge.net/DTD/sodipodi-0.dtd"
   xmlns="http://www.w3.org/2000/svg"
   xmlns:svg="http://www.w3.org/2000/svg"><defs
   id="defs9" /><sodipodi:namedview
   id="namedview9"
   pagecolor="#ffffff"
   bordercolor="#000000"
   borderopacity="0.25"
   inkscape:showpageshadow="2"
   inkscape:pageopacity="0.0"
   inkscape:pagecheckerboard="0"
   inkscape:deskcolor="#d1d1d1"
   inkscape:zoom="1.4217227"
   inkscape:cx="-13.364069"
   inkscape:cy="283.45893"
   inkscape:window-width="1856"
   inkscape:window-height="1016"
   inkscape:window-x="0"
   inkscape:window-y="0"
   inkscape:window-maximized="1"
   inkscape:current-layer="svg9" />


<g
   id="Flower"
   transform="translate(-300.0005)">
	<g
   id="g4">
		<path
   fill="#b3d92c"
   d="m 573.9497,219.1611 c 0,30.2603 -24.5273,54.79 -54.79,54.79 H 354.7896 c -30.2598,0 -54.7891,-24.5297 -54.7891,-54.79 V 54.79 C 300.0005,24.5298 324.5298,0 354.7896,0 h 164.3701 c 30.2627,0 54.79,24.5298 54.79,54.79 z"
   id="path4" />
		<path
   id="path7490"
   fill="#ffffff"
   d="m 359.3267,47.7519 c 0.1347,-5.2094 -10.9746,-12.1616 -2.503,-15.0591 1.876,-4.2138 0.1514,-13.644 7.9688,-10.0937 5.7988,2.7036 7.042,-6.582 13.0517,-2.6499 5.5889,1.6963 2.7481,7.1929 -1.4755,7.1035 -5.4004,5.457 1.8173,13.3794 7.4472,15.9707 4.3496,3.5147 6.9824,-1.3838 3.878,-4.9966 -2.5938,-7.0478 9.0576,-6.6499 6.8945,0.3155 -3.6426,4.4853 -4.3623,12.2871 2.5459,14.8852 4.4687,2.0498 5.1592,-2.7226 3.1972,-5.8603 -1.3085,-5.6319 8.3165,-7.7242 7.5079,-1.1831 -2.5459,4.6801 -7.9053,11.6914 -1.0264,16.248 5.1094,2.8149 5.4873,-4.123 4.9687,-7.3955 2.6348,-6.2222 11.8457,1.7949 5.2286,4.8701 -6.5274,3.3955 -3.876,11.0386 1.0966,15.4102 7.7452,8.9052 13.5284,19.4111 18.0469,30.1972 4.2227,10.7315 6.8447,22.4512 5.3399,33.5225 -2.5782,6.6147 -13.9317,5.103 -15.71,-2.3066 -3.2715,-7.9644 -1.8701,-16.5064 -4.2588,-24.6294 -3.0117,-16.0254 -8.3848,-32.1289 -17.9609,-45.8863 -5.5371,-5.726 -9.8106,7.168 -15.1612,1.77 -3.1933,-6.2758 6.1202,-7.7128 9.4893,-5.8071 2.7236,-5.1113 -7.0029,-11.4477 -11.1025,-8.0024 -2.8448,3.144 -10.0342,6.5864 -10.0411,-1.0054 1.1036,-6.6299 8.9786,2.0356 10.7891,-2.9785 -0.624,-5.6787 -8.3008,-7.356 -12.7715,-8.7764 -7.1924,-1.6299 -5.789,8.8867 -11.6318,9.586 -1.7451,-0.2012 -3.0811,-1.6592 -3.8076,-3.2466 z" />
		<path
   id="path7488"
   fill="#ffffff"
   d="m 330.1939,178.1582 c 2.4003,-9.6387 18.3417,-16.9644 6.4072,-27.2935 -4.6348,-13.2417 9.5556,-23.6723 21.6992,-22.1455 12.7402,0.1865 24.6963,6.7954 37.5195,5.875 0.5625,-12.4258 -15.4472,-10.9863 -23.874,-10.7305 -12.3486,-0.0488 -26.8037,0.9483 -36.6689,-8.0141 -10.1592,-10.9375 13.2041,-16.3169 4.3632,-24.8789 -8.6709,-8.7569 -0.3525,-20.5381 10.2559,-14.6948 11.3857,-5.1797 24.0498,-9.6246 35.2861,-0.1851 17.1983,10.0884 29.375,28.6191 31.459,48.4365 -11.5215,-4.31 -13.7168,-20.3789 -25.8808,-24.5757 -12.7207,-4.1889 -15.0704,13.5034 -3.7217,17.3921 6.0127,7.0908 28.6318,13.7354 18.9502,24.0757 -9.4082,-0.5269 -31.086,-3.7773 -23.9424,12.7549 8.5547,8.5273 -11.0742,19.2422 2.9639,23.2207 12.3105,0.749 16.4707,-13.0908 26.0898,-18.1411 12.8164,-2.9478 -2.7266,8.5244 -5.8125,12.5346 -10.8848,13.1207 -15.6914,33.1006 -33.2646,39.3833 -11.8067,-0.0395 -20.7999,-10.2485 -32.585,-11.2973 -7.6113,-3.7998 -13.4551,-13.5235 -9.2422,-21.7188 v 0 z m 114.0849,-64.9185 c -6.999,-21.2881 -7.6201,-48 9.2412,-64.5483 8.8692,-10.208 20.8447,5.0273 28.1387,-5.3975 12.1914,-6.5932 28.417,6.3447 23.6348,19.7671 -4.2207,11.3203 14.6084,14.1719 7.0166,26.1729 -4.6768,12.5527 -18.3047,14.8095 -29.3555,18.6728 -9.8252,4.2954 -18.3369,11.1021 -25.6875,18.8218 -5.7578,-5.4087 9.1396,-15.1231 11.4678,-21.7095 5.4765,-7.1348 15.1738,-18.0713 6.5185,-26.6787 -10.7588,-3.438 -15.6504,11.1235 -21.3252,17.8022 -3.0898,4.7374 -3.5898,26.8853 -9.6474,17.0972 z m 47.2842,66.3233 c -12.2979,-9.9786 -27.3555,-15.7539 -42.5176,-19.4712 0.707,11.52 20.2725,10.6103 18.3692,22.8222 -4.1348,4.5694 -13.1221,2.5005 -7.4776,11.3745 9.9883,10.0469 -5.6318,24.6392 -13.7334,12.5225 -5.209,-5.8608 -1.6289,-23.3628 -10.8369,-12.2124 -11.4473,9.897 -18.4268,-11.8149 -9.8389,-18.8257 4.375,-4.7334 7.9961,-16.2021 -2.5127,-11.4463 -9.3115,5.6006 -15.9013,15.2373 -20.8173,24.8174 -4.8145,10.9595 -8.2325,24.5567 -2.6534,35.9678 7.0547,11.708 22.9151,14.1499 34.6416,9.3169 11.4356,0.5288 16.5489,14.9985 28.625,15.0698 13.3106,2.5571 29.6748,-5.9946 30.3028,-20.6323 4.3506,-11.1182 17.7275,-21.5752 9.2324,-34.5884 -2.4863,-5.604 -6.3818,-10.4868 -10.7813,-14.7139 h -0.002 v -9e-4 z m 59.4316,-34.5562 c -5.6035,-8.7495 -25.8447,-1.2085 -18.4707,-15.0552 0.8809,-12.7749 -14.042,-16.7871 -24.0146,-17.789 -21.4873,-1.2471 -40.7549,11.5986 -54.9258,26.3935 -2.0645,7.5386 8.2158,-5.2705 11.9678,-4.7768 7.4746,-2.4292 21.9785,-7.9585 26.7509,0.1948 -4.7509,5.041 -6.4228,13.1973 3.67,11.0869 12.5556,1.395 10.5254,21.5078 -2.8838,14.1719 -12.6016,-3.6734 -27.0108,-11.3125 -39.7324,-5.9688 4.8857,6.857 19.6045,6.4458 26.9462,13.4712 11.4698,6.4751 20.3506,16.5669 31.2471,23.7388 11.7871,7.354 27.9629,0.7632 27.8242,-13.1777 10.7686,-5.2149 24.1875,-15.5743 14.3916,-28.918 l -1.2978,-1.7656 -1.4727,-1.604 v 0 z" />
	</g>
</g>

</svg>
