<?xml version="1.0" encoding="UTF-8" standalone="no"?>
<svg
   version="1.1"
   x="0px"
   y="0px"
   viewBox="0 0 273.9497 273.95111"
   enable-background="new 0 0 573.9497 573.9516"
   xml:space="preserve"
   id="svg9"
   sodipodi:docname="winter.svg"
   inkscape:version="1.3.1 (9b9bdc1480, 2023-11-25, custom)"
   width="273.94971"
   height="273.95111"
   xmlns:inkscape="http://www.inkscape.org/namespaces/inkscape"
   xmlns:sodipodi="http://sodipodi.sourceforge.net/DTD/sodipodi-0.dtd"
   xmlns="http://www.w3.org/2000/svg"
   xmlns:svg="http://www.w3.org/2000/svg"><defs
   id="defs9" /><sodipodi:namedview
   id="namedview9"
   pagecolor="#ffffff"
   bordercolor="#000000"
   borderopacity="0.25"
   inkscape:showpageshadow="2"
   inkscape:pageopacity="0.0"
   inkscape:pagecheckerboard="0"
   inkscape:deskcolor="#d1d1d1"
   inkscape:zoom="1.4217227"
   inkscape:cx="286.97579"
   inkscape:cy="283.45893"
   inkscape:window-width="1856"
   inkscape:window-height="1016"
   inkscape:window-x="0"
   inkscape:window-y="0"
   inkscape:window-maximized="1"
   inkscape:current-layer="svg9" />



<g
   id="Snowflake">
	<g
   id="g9">
		<path
   fill="#02b1e8"
   d="m 273.9497,219.1611 c 0,30.2603 -24.5273,54.79 -54.79,54.79 H 54.79 C 24.5298,273.9511 0,249.4214 0,219.1611 V 54.79 C 0,24.5298 24.5298,0 54.79,0 h 164.3697 c 30.2627,0 54.79,24.5298 54.79,54.79 z"
   id="path5" />
		<path
   fill="#02b1e8"
   d="m 273.9497,219.1611 c 0,30.2603 -24.5273,54.79 -54.79,54.79 H 54.79 C 24.5298,273.9511 0,249.4214 0,219.1611 V 54.79 C 0,24.5298 24.5298,0 54.79,0 h 164.3697 c 30.2627,0 54.79,24.5298 54.79,54.79 z"
   id="path6" />
		<path
   fill="#02b1e8"
   d="m 273.9497,219.1611 c 0,30.2603 -24.5273,54.79 -54.79,54.79 H 54.79 C 24.5298,273.9511 0,249.4214 0,219.1611 V 54.79 C 0,24.5298 24.5298,0 54.79,0 h 164.3697 c 30.2627,0 54.79,24.5298 54.79,54.79 z"
   id="path7" />
		<path
   fill="#ffffff"
   d="m 100.3315,115.6567 -1.4282,41.814 35.4976,22.144 36.9267,-19.6714 1.4278,-41.8139 -35.4981,-22.1431 z m 60.627,36.5234 -25.6216,14.3531 -25.2422,-15.0132 0.3809,-29.3648 25.6235,-14.3535 25.2403,15.0137 z"
   id="path8" />
		<path
   fill="#ffffff"
   d="m 240.3599,175.2749 -15.4356,7.9326 -22.4824,-12.8071 21.1328,-12.5152 -4.2402,-7.9233 -16.1397,9.0415 -16.959,-10.625 0.1329,-5.4185 0.0918,0.1743 0.2587,-13.7138 17.3575,-10.8355 16.8281,10.9859 6.0615,-8.2173 -23.0986,-13.8604 22.1875,-13.6616 18.0703,9.3633 3.9648,-7.7163 -19.5263,-9.1626 1.7402,-19.8081 -8.9492,-0.7471 -0.8477,17.336 -22.333,13.0664 -0.2715,-24.5601 -8.9824,-0.2876 -0.2412,18.5605 -18.4326,8.9791 -3.9404,-2.5821 0.1162,0.0059 -1.3399,-0.8071 -5.9219,-3.8809 0.2413,0.456 -4.5772,-2.7592 -0.707,-20.4502 17.9267,-9.0786 -4.0839,-9.3604 -23.5518,13.0742 -0.7383,-26.0449 17.1455,-10.9683 -4.7002,-7.2915 -17.7002,12.3306 -16.2827,-11.4126 -5.1221,7.377 14.5899,9.4013 0.1499,25.8741 -21.4058,-12.044 -4.7397,7.6353 15.8833,9.4472 -0.5264,19.8101 -10.9097,5.813 0.2813,0.0146 -6.2183,3.4351 L 86.0537,87.2363 87.1548,67.1714 77.0064,66.0283 76.5522,92.9624 53.6274,80.58 52.7002,60.2475 l -8.6655,0.4253 1.8296,21.4927 -18.0259,8.395 3.8286,8.125 15.436,-7.9341 22.482,12.8067 -21.1328,12.5161 4.2421,7.9228 16.1221,-9.0307 16.0156,9.8052 0.5337,16.9526 -0.0532,2.8154 -17.3564,10.8369 -16.8282,-10.9863 -6.063,8.2163 23.0982,13.8604 -22.1856,13.664 -18.0708,-9.3652 -3.9648,7.7178 19.5273,9.1611 -1.7412,19.8081 8.9492,0.7476 0.8472,-17.3365 22.3335,-13.0654 0.271,24.5596 8.9834,0.2866 0.2393,-18.4614 16.9668,-9.3989 5.1943,2.7861 -0.0708,-0.003 6.1811,3.7255 0.3584,0.2349 -0.0136,-0.0269 5.2456,3.1622 0.7051,20.4502 -17.9278,9.0786 4.085,9.3613 23.5517,-13.0747 0.7388,26.0459 -17.145,10.9687 4.7007,7.2901 17.6992,-12.3301 16.2837,11.4116 5.1211,-7.3779 -14.5908,-9.3999 -0.1485,-25.8726 21.4063,12.0415 4.7402,-7.6338 -15.9092,-9.4624 0.8291,-19.8266 12.2705,-6.7847 -0.1191,-0.004 4.4072,-2.4355 18.0625,9.6132 -1.1006,20.0664 10.1475,1.1426 0.4541,-26.935 22.9248,12.3828 0.9268,20.333 8.665,-0.4253 -1.8291,-21.4922 18.0254,-8.395 z M 195.314,174.291 c -0.5118,0.8506 -1.4151,1.3213 -2.3409,1.3213 -0.4794,0 -0.9648,-0.127 -1.4062,-0.3921 l -17.5078,-10.5464 -36.8394,19.625 -0.5835,22.0752 c -0.04,1.4824 -1.2539,2.6582 -2.728,2.6582 -0.0249,0 -0.0488,0 -0.0732,-10e-4 -1.5078,-0.04 -2.6968,-1.2929 -2.6573,-2.8007 l 0.5772,-21.8326 -33.0781,-20.6328 -18.3638,10.3653 c -0.4243,0.2397 -0.8848,0.353 -1.3394,0.353 -0.9531,0 -1.8784,-0.4986 -2.3798,-1.3877 -0.7413,-1.3125 -0.2774,-2.9776 1.0356,-3.7188 l 15.772,-8.9028 -0.062,-0.0386 1.4853,-43.4926 -15.4966,-9.3345 c -1.291,-0.7783 -1.7075,-2.4561 -0.9297,-3.7476 0.7779,-1.292 2.4532,-1.7085 3.7476,-0.9297 l 14.2969,8.6119 37.7671,-20.1187 0.5498,-20.8145 c 0.04,-1.5068 1.2724,-2.7221 2.8012,-2.6572 1.5079,0.0401 2.6963,1.2945 2.6563,2.8013 l -0.5352,20.3096 36.4258,22.7231 17.294,-9.7627 c 1.3134,-0.7412 2.9785,-0.2773 3.7187,1.0357 0.7412,1.3125 0.2783,2.978 -1.0342,3.7192 l -17.8945,10.1011 -1.4033,41.0649 17.5967,10.6001 c 1.2919,0.7769 1.707,2.4551 0.9287,3.7466 z m -11.4102,-35.9844 -0.0908,0.145 -0.009,-0.3359 z"
   id="path9" />
	</g>
</g>
</svg>
