<?xml version="1.0" encoding="UTF-8" standalone="no"?>
<!-- Created with Inkscape (http://www.inkscape.org/) -->

<svg
   width="123.58566mm"
   height="92.220543mm"
   viewBox="0 0 123.58566 92.220543"
   version="1.1"
   id="svg1"
   xml:space="preserve"
   inkscape:version="1.3 (0e150ed6c4, 2023-07-21)"
   sodipodi:docname="logo.svg"
   xmlns:inkscape="http://www.inkscape.org/namespaces/inkscape"
   xmlns:sodipodi="http://sodipodi.sourceforge.net/DTD/sodipodi-0.dtd"
   xmlns="http://www.w3.org/2000/svg"
   xmlns:svg="http://www.w3.org/2000/svg"><sodipodi:namedview
     id="namedview1"
     pagecolor="#ffffff"
     bordercolor="#000000"
     borderopacity="0.25"
     inkscape:showpageshadow="2"
     inkscape:pageopacity="0.0"
     inkscape:pagecheckerboard="0"
     inkscape:deskcolor="#d1d1d1"
     inkscape:document-units="mm"
     inkscape:zoom="0.64640599"
     inkscape:cx="269.95418"
     inkscape:cy="150.834"
     inkscape:window-width="1920"
     inkscape:window-height="991"
     inkscape:window-x="-9"
     inkscape:window-y="-9"
     inkscape:window-maximized="1"
     inkscape:current-layer="layer1" /><defs
     id="defs1" /><g
     inkscape:label="Capa 1"
     inkscape:groupmode="layer"
     id="layer1"
     transform="translate(-45.078515,-84.81972)"><g
       id="g5"
       transform="matrix(0.72244373,0,0,0.72244373,29.662812,36.340441)"><g
         id="g4"
         transform="translate(8.3292926,3.6211915)"><path
           style="fill:#000000;fill-opacity:1;stroke:none;stroke-width:4.334;stroke-linecap:round;stroke-linejoin:round;stroke-dasharray:none"
           d="m 106.83591,138.25519 c -0.63359,3.20542 -30.542887,15.76362 -46.179949,-9.15255 -2.06122,-3.28435 -4.714648,-9.57864 -4.498653,-10.6714 0.175487,-0.88781 4.49155,-3.15079 8.49696,-4.45507 29.06408,-9.46421 42.889542,20.69771 42.181642,24.27902 z M 63.089113,122.11378 c -0.493245,-0.37061 10.113075,17.31566 30.405414,15.50283 4.173429,-0.37284 6.384504,-0.93464 5.920983,-1.50443 -10.62362,5.07725 -29.438381,-8.82299 -36.326397,-13.9984 z"
           id="path3"
           sodipodi:nodetypes="sssssssss" /><path
           style="fill:#000000;fill-opacity:1;stroke:none;stroke-width:4.334;stroke-linecap:round;stroke-linejoin:round;stroke-dasharray:none"
           d="m 121.33405,87.872393 c -3.21438,-0.586355 -25.868338,22.631567 -8.42484,46.318227 2.29933,3.12228 7.18156,7.89958 8.27737,8.09948 0.8903,0.16241 4.57872,-3.02272 7.26133,-6.2705 19.4656,-23.56655 -3.52252,-47.492095 -7.11386,-48.147207 z m -1.03063,46.618277 c 0.16384,0.59481 -12.39905,-15.75974 -3.26908,-33.97263 1.8777,-3.74575 3.2114,-5.596637 3.57144,-4.956412 -8.62021,8.020692 -2.5904,30.622762 -0.30236,38.929042 z"
           id="path3-7"
           sodipodi:nodetypes="sssssssss" /><path
           style="fill:#000000;fill-opacity:1;stroke:none;stroke-width:4.334;stroke-linecap:round;stroke-linejoin:round;stroke-dasharray:none"
           d="m 108.38633,63.844154 c 2.85446,1.59001 5.5906,33.913195 -22.930412,41.116346 -3.759521,0.94948 -10.565075,1.53538 -11.538195,0.99334 -0.790608,-0.4404 -1.614287,-5.24362 -1.621564,-9.456032 C 72.243298,65.931666 105.19713,62.067679 108.38633,63.844154 Z M 79.556154,100.49314 c -0.504507,0.35514 19.58863,-4.288521 24.113676,-24.1528 0.93064,-4.08537 1.07714,-6.362015 0.39227,-6.096505 1.55853,11.670937 -17.4607,25.290069 -24.505946,30.249305 z"
           id="path3-7-1"
           sodipodi:nodetypes="sssssssss" /></g><path
         style="fill:#000000;stroke-width:0.511515"
         d="m 22.783027,194.48609 c -1.794535,-0.90882 -1.95233,-3.75637 -0.276671,-4.99272 l 0.519581,-0.38337 38.024845,-0.0715 38.024845,-0.0715 3.106563,-3.35823 c 1.70862,-1.84704 3.2894,-3.46808 3.51288,-3.60233 0.25424,-0.15273 0.69418,-0.2441 1.17537,-0.2441 0.48356,0 0.91765,0.0906 1.16933,0.2441 0.22015,0.13425 1.80631,1.77065 3.52479,3.63645 l 3.1245,3.39237 37.82872,0.002 37.82873,0.002 0.68314,0.39789 c 0.55584,0.32375 0.75193,0.54345 1.05221,1.17896 0.31728,0.67148 0.3593,0.89023 0.29947,1.55924 -0.0887,0.99285 -0.58925,1.82304 -1.3615,2.25852 l -0.5702,0.32154 -38.84158,-0.006 c -36.37735,-0.005 -38.86762,-0.0215 -39.25157,-0.25008 -0.22547,-0.13425 -1.5291,-1.482 -2.89695,-2.99498 -1.36785,-1.513 -2.5388,-2.75035 -2.60213,-2.74967 -0.0633,5.4e-4 -1.21101,1.22961 -2.55043,2.73096 -1.50279,1.6845 -2.63162,2.83194 -2.948,2.99662 -0.49702,0.25871 -1.698369,0.26686 -39.285326,0.26686 -37.342609,0 -38.791726,-0.009 -39.290617,-0.26233 z m 5.964906,-11.54704 c -2.62e-4,-0.0643 0.273712,-1.0327 0.60883,-2.15213 l 0.609306,-2.03531 0.640866,-0.20462 c 3.060954,-0.97726 8.261879,-1.8371 14.48366,-2.3945 2.735997,-0.24511 14.169534,-0.24724 17.431663,-0.003 10.366503,0.77539 19.644219,2.19394 30.184967,4.61522 3.127585,0.71843 8.627645,2.12459 8.714685,2.228 0.0359,0.0426 -0.1078,0.038 -0.31929,-0.0104 -0.45529,-0.10386 -4.873648,-0.56261 -8.395395,-0.87166 -24.161919,-2.12017 -44.887881,-2.19496 -57.998721,-0.20929 -1.859856,0.28168 -5.277549,0.9246 -5.735783,1.079 -0.123366,0.0416 -0.224522,0.023 -0.224788,-0.0412 z m 84.213907,0.0512 c 0.11756,-0.13944 6.19364,-1.6512 10.44305,-2.59827 20.02465,-4.46296 38.18795,-5.63413 52.99992,-3.41743 2.40171,0.35943 6.19425,1.16191 7.37377,1.56024 l 0.64462,0.2177 0.61718,2.0809 c 0.33946,1.14451 0.59732,2.10179 0.57304,2.12732 -0.0242,0.0256 -0.59211,-0.0738 -1.2618,-0.22059 -10.90205,-2.39053 -28.64855,-2.90278 -51.39776,-1.48359 -6.61246,0.41251 -18.42526,1.44995 -19.67471,1.72791 -0.21149,0.047 -0.35428,0.0496 -0.31731,0.006 z m -9.23442,-4.14838 C 95.810761,170.26028 84.584217,162.9932 72.391646,158.55782 62.749701,155.0503 52.452777,153.16149 42.014421,152.9856 l -1.794436,-0.0302 2.243043,-0.88255 c 1.233675,-0.48539 4.517836,-1.79324 7.298135,-2.90631 l 5.055089,-2.02377 1.994478,0.15988 c 16.608791,1.33143 31.384568,6.84778 40.831194,15.24382 2.584056,2.29667 5.917056,6.2611 7.405736,8.80872 l 0.48072,0.82266 -0.034,4.27136 -0.0339,4.27136 z m 5.13199,-2.38954 0.002,-4.34787 0.78126,-1.21468 c 5.07702,-7.89361 12.82877,-13.87034 23.50316,-18.12134 7.02937,-2.7994 16.04187,-4.81592 24.38685,-5.45647 l 2.0846,-0.16002 7.01575,2.79836 c 3.85867,1.53909 7.12971,2.85066 7.26898,2.9146 0.14533,0.0668 -1.19258,0.15423 -3.14027,0.2054 -19.98154,0.52498 -39.24704,7.63673 -53.89401,19.89468 -2.70501,2.26381 -4.21837,3.69555 -6.24848,5.91149 l -1.76239,1.92371 z m -8.01313,3.3615 c -7.764873,-1.94954 -24.524003,-5.34038 -33.453415,-6.76856 -11.151538,-1.7836 -18.394123,-2.51901 -25.288228,-2.56777 -3.660311,-0.0259 -5.870676,0.12014 -8.060524,0.53256 l -1.305258,0.24583 1.849541,-4.0849 c 1.017246,-2.24669 1.925095,-4.20009 2.017439,-4.34088 0.157883,-0.24074 0.312685,-0.24619 2.595981,-0.0913 21.296461,1.444 41.304693,6.03027 54.40262,12.47013 2.844939,1.39876 8.203134,4.51266 8.203134,4.76722 0,0.076 -0.0385,0.0694 -0.96129,-0.16226 z m 11.92016,0.0426 c 1.30864,-1.04941 5.62557,-3.50559 8.87544,-5.04981 13.43227,-6.38253 33.24682,-10.7793 54.69886,-12.13746 l 1.4099,-0.0892 1.92255,4.26208 c 1.05741,2.34415 1.93842,4.29897 1.95779,4.34404 0.0194,0.0452 -0.52852,-0.0308 -1.21758,-0.16864 -4.90612,-0.98136 -14.52254,-0.65216 -25.79815,0.88318 -2.15538,0.29347 -3.08729,0.43312 -7.04956,1.05633 -8.0713,1.26952 -20.32735,3.67783 -29.48002,5.79282 -1.72715,0.3991 -3.57286,0.82295 -4.10157,0.94187 -0.52872,0.11894 -1.07666,0.25093 -1.21766,0.29333 l -0.25634,0.0771 z m -11.66382,-1.33388 C 98.804536,177.008 93.318277,173.8829 90.210835,172.31833 73.932719,164.12245 55.566114,159.07849 38.874158,158.2199 l -1.986695,-0.10219 3.78113,-1.3947 c 4.281634,-1.57931 4.221827,-1.56988 8.010872,-1.26358 19.467142,1.5737 37.355573,8.50254 49.204675,19.05875 1.991166,1.7739 5.60061,5.4096 5.32645,5.3652 -0.0315,-0.005 -0.98004,-0.61747 -2.10797,-1.36084 z m 11.08705,0.22444 c 8.61245,-9.22793 19.71537,-15.6845 34.03018,-19.78928 6.78203,-1.94476 15.37688,-3.37941 21.46914,-3.58365 l 2.24305,-0.0752 3.78113,1.4231 3.78114,1.4231 -1.02541,0.0183 c -0.56397,0.0104 -1.34262,0.0464 -1.73034,0.0808 -0.38773,0.0344 -1.57013,0.13308 -2.62756,0.21929 -7.03334,0.5734 -15.32827,2.07522 -22.55863,4.08433 -2.26896,0.63048 -6.99847,2.07878 -7.62634,2.3354 -0.17625,0.072 -1.01258,0.36807 -1.85853,0.65787 -8.21165,2.81313 -19.06506,8.02742 -26.12123,12.54939 -1.04301,0.66841 -2.11005,1.35223 -2.37123,1.51959 -0.35114,0.22504 -0.19101,1.9e-4 0.61463,-0.86302 z"
         id="path4" /></g></g></svg>
