<?xml version="1.0" encoding="UTF-8" standalone="no"?>
<!-- Created with Inkscape (http://www.inkscape.org/) -->

<svg
   width="175.77199mm"
   height="163.05417mm"
   viewBox="0 0 175.77199 163.05417"
   version="1.1"
   id="svg1"
   xml:space="preserve"
   inkscape:version="1.3.1 (9b9bdc1480, 2023-11-25, custom)"
   sodipodi:docname="no-image.svg"
   xmlns:inkscape="http://www.inkscape.org/namespaces/inkscape"
   xmlns:sodipodi="http://sodipodi.sourceforge.net/DTD/sodipodi-0.dtd"
   xmlns="http://www.w3.org/2000/svg"
   xmlns:svg="http://www.w3.org/2000/svg"><sodipodi:namedview
     id="namedview1"
     pagecolor="#ffffff"
     bordercolor="#000000"
     borderopacity="0.25"
     inkscape:showpageshadow="2"
     inkscape:pageopacity="0.0"
     inkscape:pagecheckerboard="0"
     inkscape:deskcolor="#d1d1d1"
     inkscape:document-units="mm"
     inkscape:zoom="0.60186997"
     inkscape:cx="431.987"
     inkscape:cy="214.33201"
     inkscape:window-width="1856"
     inkscape:window-height="1016"
     inkscape:window-x="0"
     inkscape:window-y="0"
     inkscape:window-maximized="1"
     inkscape:current-layer="layer1" /><defs
     id="defs1" /><g
     inkscape:label="Capa 1"
     inkscape:groupmode="layer"
     id="layer1"
     transform="translate(-22.263266,-67.15225)"><rect
       style="opacity:0.1;fill:#000000;stroke-width:0.107964;stroke-linecap:round;stroke-dasharray:0.107964, 0.323892"
       id="rect1"
       width="175.49397"
       height="163.1937"
       x="22.724836"
       y="67.474815" /><path
       style="fill:#000000;stroke-width:0.187826"
       d="m 176.36182,226.46214 c -0.39097,-0.37417 -0.47058,-0.71177 -0.21345,-0.90521 0.31428,-0.23643 0.53265,-1.09895 0.48484,-1.91502 -0.0458,-0.78155 -0.0818,-0.88641 -0.37139,-1.08061 -1.04744,-0.70248 -1.12612,-0.76728 -1.18981,-0.97984 -0.167,-0.55739 -1.01956,-2.39326 -1.1246,-2.42166 -0.0273,-0.007 -0.10181,0.10353 -0.16551,0.2465 -0.0637,0.14297 -0.13296,0.29349 -0.15393,0.33449 -0.20596,0.40285 -0.18619,0.5374 0.19402,1.31998 0.93574,1.92607 0.9291,1.91024 0.80178,1.91024 -0.0629,0 -0.18714,-0.16429 -0.40408,-0.53422 -0.89691,-1.52948 -0.77172,-1.40597 -1.03263,-1.01877 -0.65544,0.97268 -0.80655,1.46738 -0.60327,1.97503 0.17265,0.43117 0.17919,0.73108 0.0219,1.00486 -0.0782,0.13615 -0.079,0.13385 -0.0459,-0.13481 0.0424,-0.34379 0.0301,-0.60709 -0.0311,-0.66831 -0.026,-0.026 -0.0473,-0.0891 -0.0473,-0.14011 0,-0.0721 -0.0236,-0.0853 -0.10582,-0.0592 -0.0972,0.0309 -0.10327,0.0201 -0.0743,-0.13332 0.0173,-0.0918 0.0519,-0.31226 0.0768,-0.48992 0.0249,-0.17766 0.0718,-0.44602 0.10421,-0.59635 0.16445,-0.76396 0.18668,-0.69574 -0.22673,-0.69574 -0.37976,0 -0.60676,0.0903 -0.81056,0.32241 -0.16954,0.1931 -0.20223,0.15905 -0.078,-0.0812 0.0786,-0.1519 0.49662,-0.38087 0.84106,-0.46064 0.53022,-0.12281 0.51898,-0.11539 0.67036,-0.44244 0.17632,-0.38095 0.25756,-0.62781 0.39544,-1.2017 0.0591,-0.24599 0.13325,-0.54789 0.16477,-0.67089 0.0848,-0.33077 0.0777,-1.14506 -0.0115,-1.32152 -0.30395,-0.60148 -0.37407,-0.63669 -0.71521,-0.35915 -0.7345,0.59757 -0.82435,0.74622 -0.86227,1.42636 -0.0223,0.40005 -0.0446,0.49819 -0.13679,0.60218 -0.12019,0.13557 -0.16399,0.24097 -0.32483,0.78148 -0.11508,0.38672 -0.38551,0.69743 -0.76287,0.8765 -0.0938,0.0445 -0.18339,0.11455 -0.19917,0.15568 -0.0158,0.0411 -0.0753,0.0748 -0.13238,0.0748 -0.31306,0 -1.34061,0.9967 -1.34061,1.30037 0,0.0484 0.0477,0.17263 0.106,0.27596 0.54312,0.9626 0.55119,1.12667 0.0884,1.7975 -0.65477,0.94908 -0.61782,0.86742 -0.60838,1.34425 0.008,0.42543 0.008,0.42543 -0.0842,0.2018 -0.0509,-0.123 -0.0939,-0.2666 -0.0954,-0.31911 -0.002,-0.0525 -0.0363,-0.13258 -0.0774,-0.17793 -0.0672,-0.0743 -0.0623,-0.0891 0.0497,-0.14897 0.0684,-0.0366 0.12431,-0.0822 0.12431,-0.10128 0,-0.0191 0.15822,-0.24455 0.35161,-0.50098 0.69108,-0.91637 0.70659,-1.0748 0.18555,-1.89499 -0.1999,-0.31467 -0.18809,-0.31814 -0.38075,0.11181 -0.0306,0.0683 -0.0628,0.28079 -0.0715,0.47212 -0.0158,0.34787 -0.0158,0.34787 -0.0255,-0.0634 -0.007,-0.29949 0.0164,-0.48565 0.0865,-0.68512 0.0963,-0.2739 0.0963,-0.2739 -0.0244,-0.53299 -0.2953,-0.63425 -0.068,-1.54108 0.48562,-1.9379 0.58241,-0.41742 0.56866,-0.38458 0.45566,-1.08861 -0.0314,-0.19555 0.0727,-0.46116 0.37632,-0.95976 0.3624,-0.59522 0.41733,-0.80465 0.32551,-1.24108 -0.19438,-0.92401 -0.23131,-0.96306 -0.52936,-0.55979 -0.39033,0.52814 -0.69164,0.83189 -1.05796,1.06655 -1.57507,1.00894 -1.70627,1.21675 -1.38048,2.18651 0.31557,0.93934 0.38183,1.51071 0.20412,1.76028 -0.0858,0.12045 -0.0952,0.17071 -0.0529,0.281 0.12033,0.31331 0.17414,0.83571 0.10271,0.99709 -0.10927,0.24686 -0.20163,0.24013 -0.11392,-0.008 0.0795,-0.22505 0.0652,-0.33708 -0.0848,-0.66639 -0.13393,-0.29399 -0.35275,-0.18634 -1.25175,0.61583 -0.26272,0.23442 -0.49698,0.37578 -0.32476,0.19598 0.0361,-0.0377 0.39214,-0.40111 0.79117,-0.80755 0.94412,-0.96168 0.94274,-0.9587 0.72037,-1.55919 -0.33583,-0.90685 -0.31523,-0.88265 -0.56942,-0.66876 -0.0972,0.0818 -0.17679,0.21854 -0.22629,0.38882 -0.042,0.14446 -0.11956,0.30176 -0.17236,0.34954 -0.0528,0.0478 -0.12312,0.15236 -0.15627,0.23238 -0.0581,0.1402 -0.1476,0.19831 -0.1476,0.0958 0,-0.0273 0.0224,-0.0497 0.0497,-0.0497 0.0273,0 0.0497,-0.0413 0.0497,-0.0917 0,-0.0504 0.0447,-0.13217 0.0994,-0.18164 0.0547,-0.0495 0.0994,-0.12302 0.0994,-0.16345 0,-0.19889 0.14044,-0.49264 0.34348,-0.71848 0.22531,-0.2506 0.22531,-0.2506 0.22667,-0.6534 0.002,-0.45295 0.0522,-0.5579 0.49487,-1.02548 0.12863,-0.13585 0.22041,-0.247 0.20397,-0.247 -0.0602,0 -0.51745,0.2481 -0.54781,0.29723 -0.0172,0.0278 -0.0534,0.0506 -0.0803,0.0506 -0.0696,0 0.15421,-0.21081 0.30778,-0.28987 0.0708,-0.0364 0.16021,-0.11399 0.19878,-0.17236 0.10517,-0.15917 0.31259,-0.35075 0.4474,-0.41322 0.24327,-0.11275 0.37142,-0.16113 0.50072,-0.18906 0.68511,-0.14797 1.81323,-2.22861 2.1308,-3.92991 0.0255,-0.13667 0.0797,-0.42739 0.1205,-0.64605 0.0605,-0.32424 0.0743,-0.95475 0.0751,-3.41852 9.8e-4,-3.02095 9.8e-4,-3.02095 0.43581,-3.00659 0.43484,0.0144 0.43484,0.0144 0.5259,0.20072 0.10959,0.22426 0.13634,0.22725 0.37154,0.0414 0.48599,-0.38398 1.07491,-0.47263 1.66734,-0.25097 0.28839,0.1079 0.70187,0.43543 0.75298,0.59646 0.0482,0.15196 0.13114,0.11776 0.3607,-0.14881 0.63948,-0.74257 1.98227,-0.74677 2.63009,-0.008 0.46825,0.53382 0.52029,0.83239 0.54901,3.14944 0.0245,1.97541 0.0245,1.97541 -0.49867,1.97541 -0.52314,0 -0.52314,0 -0.54368,-1.92571 -0.0212,-1.99146 -0.0321,-2.10004 -0.23933,-2.39829 -0.22938,-0.33008 -0.96569,-0.46879 -1.32513,-0.24963 -0.46229,0.28188 -0.51114,0.54262 -0.51114,2.72823 0,1.8454 0,1.8454 -0.51918,1.8454 -0.51918,0 -0.51918,0 -0.53423,-1.97541 -0.0121,-1.59274 -0.0289,-2.00429 -0.0865,-2.12449 -0.35619,-0.74275 -1.38813,-0.80043 -1.77811,-0.0994 -0.16588,0.29819 -0.21299,2.25556 -0.11661,4.84533 0.0801,2.15262 0.17081,2.44606 1.09823,3.55325 0.8854,1.05701 1.34009,1.79683 1.34009,2.18042 0,0.0958 0.0179,0.18534 0.0398,0.19889 0.0219,0.0135 0.0714,0.1405 0.10997,0.28211 0.0568,0.20838 0.0989,0.26978 0.22105,0.32203 0.083,0.0355 0.22991,0.0987 0.32644,0.14042 0.17772,0.0768 0.31557,0.18423 0.43945,0.34241 0.10563,0.13487 0.0353,0.10342 -0.19043,-0.0852 -0.18392,-0.15367 -0.51451,-0.27622 -0.57686,-0.21387 -0.0254,0.0254 0.1509,0.57388 0.47553,1.47934 0.11269,0.31433 0.24095,0.67935 0.28501,0.81116 0.0979,0.29294 1.10003,1.24541 1.37205,1.30409 0.21443,0.0463 0.48516,0.18845 0.59948,0.31486 0.15322,0.16942 0.0428,0.18629 -0.13296,0.0203 -0.15319,-0.14465 -0.43277,-0.25885 -0.43528,-0.17779 -7.6e-4,0.021 -0.008,0.42957 -0.0164,0.90789 -0.0167,0.95474 -0.0623,1.15336 -0.36628,1.59519 -0.47081,0.6843 -0.44618,0.86955 0.16923,1.27278 0.11813,0.0774 0.15325,0.16347 0.0667,0.16347 -0.0267,0 -0.15952,-0.10623 -0.29518,-0.23605 z m -7.23453,-4.56219 c 0.3135,-0.4093 0.45026,-0.51526 1.18471,-0.91792 0.6133,-0.33625 0.89041,-0.59123 0.86859,-0.79924 -0.009,-0.0813 0.008,-0.16371 0.0363,-0.18311 0.0285,-0.0194 0.0806,-0.13366 0.11573,-0.25392 0.0352,-0.12027 0.11668,-0.29917 0.18115,-0.39757 0.0912,-0.1392 0.12474,-0.27815 0.15107,-0.62616 0.0496,-0.65574 0.22718,-1.00908 0.9431,-1.87658 0.12504,-0.15153 0.0854,-0.21454 -0.46647,-0.74065 -0.56015,-0.53405 -0.74029,-0.76524 -0.97139,-1.24662 -0.11575,-0.24113 -0.27895,-0.38479 -0.27895,-0.24555 0,0.0221 -0.08,0.17306 -0.17787,0.33544 -0.13295,0.2207 -0.17164,0.3329 -0.15322,0.44434 0.19795,1.19773 0.22817,1.81938 0.10542,2.16794 -0.0755,0.21435 -0.17225,0.3744 -0.52206,0.8635 -0.32912,0.46018 -0.41927,0.693 -0.35342,0.91278 0.1609,0.53705 0.0933,0.67493 -0.52714,1.07505 -0.33134,0.21368 -0.40774,0.33725 -0.53774,0.86968 -0.0881,0.36082 -0.0867,0.59464 0.005,0.81391 0.0948,0.22693 0.0612,0.24346 0.39727,-0.19532 z m -8.5706,-10.18987 c -0.89282,-0.23997 -1.71354,-1.12438 -1.21817,-1.31272 0.0706,-0.0269 0.25505,-0.10675 0.40978,-0.17752 0.30138,-0.13786 0.32187,-0.13162 0.49749,0.15157 0.28604,0.46125 1.24105,0.54724 1.73149,0.1559 0.6067,-0.48409 0.32532,-0.9637 -0.72298,-1.23232 -0.61633,-0.15792 -0.66534,-0.17243 -0.89868,-0.26594 -2.3065,-0.92438 -0.66637,-3.78737 1.66481,-2.90607 0.81022,0.3063 1.39558,1.16183 0.8821,1.28921 -0.12983,0.0322 -0.30473,0.0798 -0.38867,0.10585 -0.24596,0.0762 -0.29219,0.0589 -0.45348,-0.16994 -0.45336,-0.64319 -1.69977,-0.46384 -1.70365,0.24513 -0.002,0.35693 0.19438,0.48929 1.10256,0.7433 1.63624,0.45763 2.18934,1.11019 1.85145,2.18441 -0.28686,0.91201 -1.62901,1.49152 -2.75405,1.18914 z m 5.85185,0.002 c -2.21882,-0.53802 -2.96124,-3.38477 -1.30897,-5.01918 1.21348,-1.20037 3.30135,-0.90817 4.00382,0.56035 0.25564,0.53444 0.25959,0.54724 0.37209,1.20619 0.1662,0.97346 0.34662,0.89173 -2.00094,0.9064 -2.35307,0.0147 -2.16036,-0.028 -1.93486,0.4288 0.37481,0.75928 1.56388,1.24612 2.30524,0.94382 0.32213,-0.13135 0.44905,-0.19641 0.6608,-0.33871 0.37304,-0.25067 0.97937,0.40265 0.64911,0.69942 -0.62404,0.56076 -1.84115,0.83239 -2.74629,0.61291 z m 1.92427,-3.53839 c -0.27494,-1.46879 -2.09862,-1.667 -2.78136,-0.3023 -0.2669,0.53351 -0.38806,0.48866 1.31984,0.48866 1.49641,0 1.49641,0 1.46152,-0.18636 z m 20.28022,3.53972 c -2.7723,-0.76119 -2.79739,-4.81069 -0.0352,-5.68527 0.22278,-0.0705 1.20477,-0.0688 1.38172,0.002 0.3524,0.14191 0.58749,0.27747 0.78929,0.4551 0.24021,0.21144 0.26926,0.19248 0.36427,-0.23774 0.0329,-0.14909 0.0329,-0.14909 0.51552,-0.16332 0.4826,-0.0142 0.4826,-0.0142 0.4826,2.77234 0,2.78656 0,2.78656 -0.4826,2.77234 -0.4826,-0.0142 -0.4826,-0.0142 -0.51552,-0.16331 -0.0965,-0.4369 -0.12896,-0.45842 -0.35805,-0.23724 -0.5041,0.48665 -1.39801,0.6889 -2.142,0.48462 z m 1.29968,-1.0285 c 1.46875,-0.68743 1.3478,-3.19796 -0.17796,-3.69384 -1.14662,-0.37265 -2.25675,0.78007 -2.08413,2.16411 0.0397,0.31836 0.0564,0.37647 0.19253,0.67019 0.3734,0.80575 1.33298,1.20428 2.06956,0.85954 z m -10.51161,-1.81548 c 0.0129,-2.77054 0.0129,-2.77054 0.54707,-2.78465 0.53423,-0.0141 0.53423,-0.0141 0.53423,2.77054 0,2.78464 0,2.78464 -0.54707,2.78464 -0.54707,0 -0.54707,0 -0.53423,-2.77053 z m 2.47278,-1.42469 c 0,-4.90241 -0.0729,-4.35245 0.57682,-4.35245 0.51649,0 0.51649,0 0.51649,4.27384 0,4.27383 0,4.27383 -0.54666,4.27383 -0.54665,0 -0.54665,0 -0.54665,-4.19522 z m 2.54663,-0.0662 c 0.0127,-4.26141 0.0127,-4.26141 0.50555,-4.27573 0.63741,-0.0185 0.57398,-0.49585 0.57485,4.32543 7.5e-4,4.21171 7.5e-4,4.21171 -0.54617,4.21171 -0.54693,0 -0.54693,0 -0.53423,-4.26141 z m -22.87219,-2.63099 c -1.72437,-0.28938 -2.80001,-2.30911 -2.12546,-3.99097 0.0501,-0.12483 0.0692,-0.16297 0.25714,-0.51354 0.79663,-1.48574 3.06189,-1.7351 4.29885,-0.47321 0.25788,0.26307 0.26411,0.23763 -0.1376,0.5622 -0.40703,0.32886 -0.35561,0.32308 -0.61564,0.0692 -0.80347,-0.78441 -2.16762,-0.52501 -2.65267,0.50443 -0.19853,0.42136 -0.21732,0.50238 -0.2166,0.93413 0.003,1.84938 2.01818,2.66544 3.05614,1.23766 0.11321,-0.15573 0.1587,-0.13529 0.61335,0.2756 0.6335,0.57253 -1.20596,1.60789 -2.47751,1.39449 z m 14.93605,-0.0454 c -0.29522,-0.0714 -0.60569,-0.22699 -0.90782,-0.45495 -0.20333,-0.15342 -0.25627,-0.13306 -0.36267,0.13947 -0.0864,0.22134 -0.0864,0.22134 -0.53978,0.23562 -0.45337,0.0143 -0.45337,0.0143 -0.45337,-4.20177 0,-4.81601 -0.0613,-4.33534 0.55253,-4.33534 0.65637,0 0.59048,-0.19654 0.59048,1.76124 0,1.89184 -0.0104,1.82636 0.25457,1.59954 0.18846,-0.16132 0.45363,-0.30783 0.78052,-0.43126 0.21755,-0.0821 1.23951,-0.0824 1.45822,-4.3e-4 3.35543,1.25835 2.08466,6.52398 -1.37268,5.68787 z m 1.15349,-1.02402 c 1.61238,-0.75238 1.31038,-3.50055 -0.41053,-3.73578 -1.30515,-0.17841 -2.19128,1.09506 -1.79567,2.58058 0.27194,1.02112 1.31881,1.56928 2.2062,1.1552 z m -8.29544,0.95876 c -1.184,-0.37866 -1.37905,-0.8934 -1.38158,-3.64599 -0.002,-1.92745 -0.002,-1.92745 0.50761,-1.91329 0.50938,0.0142 0.50938,0.0142 0.53423,1.92745 0.0222,1.7067 0.0343,1.93066 0.11275,2.07413 0.5205,0.95247 1.89191,0.93694 2.45906,-0.0278 0.13661,-0.23239 0.13661,-0.23239 0.15272,-2.10841 0.0161,-1.87601 0.0161,-1.87601 0.55908,-1.87601 0.54296,0 0.54296,0 0.54296,2.78296 0,2.78296 0,2.78296 -0.44602,2.78296 -0.44602,0 -0.44602,0 -0.54789,-0.22363 -0.12264,-0.2692 -0.10273,-0.26827 -0.47211,-0.0221 -0.53319,0.35529 -1.36822,0.45851 -2.02081,0.24981 z m -3.85599,-4.26545 c 0.0127,-4.26141 0.0127,-4.26141 0.53451,-4.26141 0.5218,0 0.5218,0 0.5345,4.26141 0.0127,4.26141 0.0127,4.26141 -0.5345,4.26141 -0.54721,0 -0.54721,0 -0.53451,-4.26141 z m 16.1295,1.48791 c -1.10359,-0.28317 -1.25069,-2.01423 -0.22016,-2.59071 0.36902,-0.20643 1.32005,-0.0859 1.3237,0.16773 3.7e-4,0.0291 0.0224,0.0194 0.0489,-0.0216 0.0265,-0.041 0.0485,-0.42676 0.0489,-0.85725 7.5e-4,-0.78271 7.5e-4,-0.78271 0.24924,-0.78271 0.24848,0 0.24848,0 0.24848,2.03752 0,2.03753 0,2.03753 -0.19879,2.03753 -0.10933,0 -0.19878,-0.0208 -0.19878,-0.0462 0,-0.16903 -0.15545,-0.19956 -0.35968,-0.0706 -0.21595,0.13632 -0.667,0.19677 -0.94188,0.12624 z m 0.80968,-0.51928 c 0.34151,-0.22704 0.4944,-0.83973 0.31605,-1.26658 -0.28695,-0.68677 -1.24227,-0.61539 -1.49336,0.11159 -0.27773,0.80409 0.5232,1.58983 1.17731,1.15499 z m 2.55425,0.52949 c -1.51927,-0.37897 -1.31992,-2.70324 0.23185,-2.70324 0.72897,0 1.1396,0.41901 1.21597,1.2408 0.0325,0.34946 0.0325,0.34946 -0.94372,0.34946 -1.09203,0 -1.09949,0.003 -0.84909,0.33122 0.30788,0.40364 0.95085,0.48721 1.32734,0.1725 0.0823,-0.0688 0.38429,0.12023 0.38429,0.24052 0,0.2013 -0.97897,0.46544 -1.36664,0.36874 z m 0.90175,-1.63567 c 0.12515,-0.32616 -0.44612,-0.7319 -0.85416,-0.60667 -0.29741,0.0913 -0.59562,0.46935 -0.49659,0.62958 0.056,0.0906 1.31539,0.0692 1.35075,-0.0229 z m 4.63351,1.62556 c -0.95117,-0.25165 -1.27549,-1.53269 -0.58666,-2.31723 0.39205,-0.44652 1.19012,-0.52563 1.61893,-0.16048 0.10532,0.0897 0.1082,0.0889 0.17461,-0.0497 0.29187,-0.60898 0.46334,-0.18175 0.47698,1.18848 0.0133,1.32936 0.0133,1.32936 -0.21026,1.32936 -0.19695,0 -0.2272,-0.0148 -0.25467,-0.12424 -0.0391,-0.15587 -0.0852,-0.15567 -0.29104,0.001 -0.1752,0.13364 -0.66126,0.20304 -0.92789,0.1325 z m 0.70645,-0.49442 c 0.66688,-0.44744 0.55647,-1.54558 -0.17603,-1.75067 -0.67419,-0.18876 -1.21243,0.66358 -0.86815,1.37477 0.19064,0.39381 0.72876,0.58753 1.04418,0.3759 z m -2.68846,-1.55267 c 0,-2.04297 0,-2.04297 0.23606,-2.02782 0.37353,0.024 0.37353,4.03168 0,4.05565 -0.23606,0.0151 -0.23606,0.0151 -0.23606,-2.02783 z"
       id="path1" /><path
       d="m 43.032358,143.83526 h 1.255388 v 9.27869 h -1.255388 z m 9.123318,3.6543 q 0.428821,-0.77063 1.025442,-1.1373 0.59662,-0.36668 1.404543,-0.36668 1.087589,0 1.677995,0.76442 0.590405,0.75821 0.590405,2.16275 v 4.2012 h -1.149737 v -4.16391 q 0,-1.00058 -0.354243,-1.48534 -0.354243,-0.48475 -1.081374,-0.48475 -0.888716,0 -1.404544,0.59041 -0.515828,0.5904 -0.515828,1.60963 v 3.93396 h -1.149737 v -4.16391 q 0,-1.0068 -0.354243,-1.48534 -0.354244,-0.48475 -1.093804,-0.48475 -0.876286,0 -1.392114,0.59662 -0.515828,0.59041 -0.515828,1.60342 v 3.93396 h -1.149737 v -6.96057 h 1.149737 v 1.08138 q 0.391532,-0.64013 0.938434,-0.94465 0.546902,-0.30453 1.298892,-0.30453 0.758205,0 1.286463,0.38532 0.534472,0.38532 0.789278,1.11866 z m 10.142546,2.12546 q -1.385899,0 -1.920371,0.31696 -0.534473,0.31695 -0.534473,1.08137 0,0.60905 0.397747,0.96951 0.403962,0.35424 1.093804,0.35424 0.950864,0 1.522625,-0.67119 0.577976,-0.67742 0.577976,-1.79608 v -0.25481 z m 2.28083,-0.47232 v 3.97125 H 63.43553 v -1.05651 q -0.391533,0.63391 -0.975723,0.93843 -0.584191,0.29831 -1.429403,0.29831 -1.068945,0 -1.702854,-0.59662 -0.627694,-0.60283 -0.627694,-1.60963 0,-1.1746 0.783064,-1.77122 0.789279,-0.59662 2.349193,-0.59662 h 1.603417 v -0.11186 q 0,-0.78928 -0.522043,-1.2181 -0.515828,-0.43504 -1.454262,-0.43504 -0.59662,0 -1.162167,0.14294 -0.565546,0.14294 -1.087589,0.42882 v -1.05651 q 0.627694,-0.24238 1.2181,-0.36046 0.590405,-0.1243 1.149737,-0.1243 1.510195,0 2.25597,0.78307 0.745776,0.78306 0.745776,2.37405 z m 6.93571,0.41018 q 0,-1.24296 -0.515828,-1.92659 -0.509614,-0.68363 -1.435618,-0.68363 -0.91979,0 -1.435618,0.68363 -0.509613,0.68363 -0.509613,1.92659 0,1.23674 0.509613,1.92037 0.515828,0.68362 1.435618,0.68362 0.926004,0 1.435618,-0.68362 0.515828,-0.68363 0.515828,-1.92037 z m 1.143522,2.69722 q 0,1.77743 -0.789279,2.64128 -0.789279,0.87008 -2.417555,0.87008 -0.602835,0 -1.137308,-0.0932 -0.534472,-0.087 -1.03787,-0.27345 v -1.11245 q 0.503398,0.27346 0.994367,0.40397 0.490969,0.13051 1.000582,0.13051 1.124878,0 1.684209,-0.59041 0.559332,-0.58419 0.559332,-1.77122 v -0.56554 q -0.354244,0.61526 -0.90736,0.91979 -0.553117,0.30452 -1.323752,0.30452 -1.280247,0 -2.063312,-0.97572 -0.783064,-0.97572 -0.783064,-2.58535 0,-1.61585 0.783064,-2.59157 0.783065,-0.97573 2.063312,-0.97573 0.770635,0 1.323752,0.30453 0.553116,0.30452 0.90736,0.91979 v -1.05652 h 1.143522 z m 8.30918,-2.90231 v 0.55933 h -5.257716 q 0.07458,1.18081 0.708487,1.80229 0.640124,0.61526 1.777431,0.61526 0.658768,0 1.274033,-0.16158 0.621479,-0.16159 1.230529,-0.48475 v 1.08137 q -0.615264,0.26102 -1.261603,0.39775 -0.646339,0.13672 -1.311322,0.13672 -1.665565,0 -2.641288,-0.96951 -0.969508,-0.9695 -0.969508,-2.62264 0,-1.70907 0.91979,-2.70965 0.926005,-1.0068 2.492133,-1.0068 1.404543,0 2.218681,0.90736 0.820353,0.90115 0.820353,2.45485 z m -1.143522,-0.3356 q -0.01243,-0.93844 -0.528257,-1.49777 -0.509614,-0.55933 -1.354826,-0.55933 -0.957078,0 -1.535054,0.54069 -0.571761,0.54069 -0.658768,1.52262 z m 8.806366,-0.0994 v 4.2012 h -1.143523 v -4.16391 q 0,-0.98815 -0.385317,-1.47912 -0.385317,-0.49097 -1.155952,-0.49097 -0.926004,0 -1.460476,0.59041 -0.534473,0.5904 -0.534473,1.60963 v 3.93396 H 82.80083 v -6.96057 h 1.149737 v 1.08138 q 0.410177,-0.6277 0.963293,-0.93844 0.559332,-0.31074 1.286463,-0.31074 1.199455,0 1.81472,0.74578 0.615265,0.73956 0.615265,2.18139 z m 12.112632,0 v 4.2012 h -1.143522 v -4.16391 q 0,-0.98815 -0.385317,-1.47912 -0.385317,-0.49097 -1.155952,-0.49097 -0.926004,0 -1.460477,0.59041 -0.534472,0.5904 -0.534472,1.60963 v 3.93396 h -1.149737 v -6.96057 H 96.0632 v 1.08138 q 0.410176,-0.6277 0.963293,-0.93844 0.559332,-0.31074 1.286463,-0.31074 1.199455,0 1.814724,0.74578 0.61526,0.73956 0.61526,2.18139 z m 4.97805,-1.95766 q -0.91979,0 -1.45426,0.72092 -0.53447,0.7147 -0.53447,1.96387 0,1.24918 0.52826,1.97009 0.53447,0.7147 1.46047,0.7147 0.91358,0 1.44805,-0.72091 0.53447,-0.72092 0.53447,-1.96388 0,-1.23674 -0.53447,-1.95766 -0.53447,-0.72713 -1.44805,-0.72713 z m 0,-0.96951 q 1.49155,0 2.34298,0.96951 0.85143,0.96951 0.85143,2.68479 0,1.70907 -0.85143,2.68479 -0.85143,0.96951 -2.34298,0.96951 -1.49776,0 -2.34919,-0.96951 -0.84521,-0.97572 -0.84521,-2.68479 0,-1.71528 0.84521,-2.68479 0.85143,-0.96951 2.34919,-0.96951 z m 13.71605,1.22432 v -3.76617 h 1.14353 v 9.67022 h -1.14353 v -1.04408 q -0.36046,0.62148 -0.91357,0.926 -0.5469,0.29831 -1.31754,0.29831 -1.2616,0 -2.0571,-1.0068 -0.78927,-1.00679 -0.78927,-2.6475 0,-1.6407 0.78927,-2.6475 0.7955,-1.0068 2.0571,-1.0068 0.77064,0 1.31754,0.30453 0.55311,0.29831 0.91357,0.91979 z m -3.89667,2.42998 q 0,1.26161 0.51582,1.98252 0.52205,0.7147 1.42941,0.7147 0.90736,0 1.4294,-0.7147 0.52204,-0.72091 0.52204,-1.98252 0,-1.2616 -0.52204,-1.9763 -0.52204,-0.72092 -1.4294,-0.72092 -0.90736,0 -1.42941,0.72092 -0.51582,0.7147 -0.51582,1.9763 z m 7.39561,-3.4865 h 1.14352 v 6.96057 h -1.14352 z m 0,-2.70965 h 1.14352 v 1.44805 h -1.14352 z m 7.97358,2.91474 v 1.08138 q -0.48476,-0.2486 -1.0068,-0.37289 -0.52204,-0.1243 -1.08137,-0.1243 -0.85143,0 -1.28025,0.26102 -0.42261,0.26102 -0.42261,0.78307 0,0.39774 0.30453,0.62769 0.30452,0.22373 1.22431,0.42882 l 0.39154,0.087 q 1.21809,0.26102 1.72771,0.73956 0.51583,0.47232 0.51583,1.32375 0,0.96951 -0.77064,1.53506 -0.76442,0.56554 -2.10681,0.56554 -0.55934,0 -1.16839,-0.11186 -0.60283,-0.10566 -1.27403,-0.32317 v -1.18081 q 0.63391,0.32938 1.24918,0.49718 0.61526,0.16158 1.2181,0.16158 0.80792,0 1.24295,-0.27345 0.43504,-0.27966 0.43504,-0.78306 0,-0.46611 -0.31695,-0.7147 -0.31074,-0.24859 -1.37347,-0.47854 l -0.39775,-0.0932 q -1.06273,-0.22374 -1.53506,-0.68363 -0.47232,-0.46611 -0.47232,-1.27403 0,-0.98194 0.69606,-1.51641 0.69605,-0.53448 1.9763,-0.53448 0.63391,0 1.19324,0.0932 0.55933,0.0932 1.03166,0.27966 z m 3.30006,5.7114 v 3.69159 h -1.14974 v -9.60808 h 1.14974 v 1.05652 q 0.36045,-0.62148 0.90736,-0.91979 0.55311,-0.30453 1.31753,-0.30453 1.26782,0 2.0571,1.0068 0.79549,1.0068 0.79549,2.6475 0,1.64071 -0.79549,2.6475 -0.78928,1.0068 -2.0571,1.0068 -0.76442,0 -1.31753,-0.29831 -0.54691,-0.30452 -0.90736,-0.926 z m 3.89046,-2.42999 q 0,-1.2616 -0.52205,-1.9763 -0.51582,-0.72092 -1.42318,-0.72092 -0.90736,0 -1.42941,0.72092 -0.51582,0.7147 -0.51582,1.9763 0,1.26161 0.51582,1.98252 0.52205,0.7147 1.42941,0.7147 0.90736,0 1.42318,-0.7147 0.52205,-0.72091 0.52205,-1.98252 z m 5.77975,-2.68479 q -0.91979,0 -1.45426,0.72092 -0.53447,0.7147 -0.53447,1.96387 0,1.24918 0.52826,1.97009 0.53447,0.7147 1.46047,0.7147 0.91358,0 1.44805,-0.72091 0.53447,-0.72092 0.53447,-1.96388 0,-1.23674 -0.53447,-1.95766 -0.53447,-0.72713 -1.44805,-0.72713 z m 0,-0.96951 q 1.49156,0 2.34298,0.96951 0.85143,0.96951 0.85143,2.68479 0,1.70907 -0.85143,2.68479 -0.85142,0.96951 -2.34298,0.96951 -1.49776,0 -2.34919,-0.96951 -0.84521,-0.97572 -0.84521,-2.68479 0,-1.71528 0.84521,-2.68479 0.85143,-0.96951 2.34919,-0.96951 z m 10.87589,2.92717 v 4.2012 h -1.14352 v -4.16391 q 0,-0.98815 -0.38532,-1.47912 -0.38532,-0.49097 -1.15595,-0.49097 -0.92601,0 -1.46048,0.59041 -0.53447,0.5904 -0.53447,1.60963 v 3.93396 h -1.14974 v -6.96057 h 1.14974 v 1.08138 q 0.41018,-0.6277 0.96329,-0.93844 0.55933,-0.31074 1.28646,-0.31074 1.19946,0 1.81472,0.74578 0.61527,0.73956 0.61527,2.18139 z m 2.28084,-2.75937 h 1.14352 v 6.96057 h -1.14352 z m 0,-2.70965 h 1.14352 v 1.44805 h -1.14352 z m 8.53291,6.19615 q 0,-1.2616 -0.52204,-1.9763 -0.51583,-0.72092 -1.42319,-0.72092 -0.90736,0 -1.42941,0.72092 -0.51582,0.7147 -0.51582,1.9763 0,1.26161 0.51582,1.98252 0.52205,0.7147 1.42941,0.7147 0.90736,0 1.42319,-0.7147 0.52204,-0.72091 0.52204,-1.98252 z m -3.89046,-2.42998 q 0.36045,-0.62148 0.90736,-0.91979 0.55311,-0.30453 1.31753,-0.30453 1.26782,0 2.0571,1.0068 0.79549,1.0068 0.79549,2.6475 0,1.64071 -0.79549,2.6475 -0.78928,1.0068 -2.0571,1.0068 -0.76442,0 -1.31753,-0.29831 -0.54691,-0.30452 -0.90736,-0.926 v 1.04408 h -1.14974 v -9.67022 h 1.14974 z m 6.97299,-3.76617 h 1.14353 v 9.67022 H 168.652 Z m 9.48999,5.90406 v 0.55933 h -5.25771 q 0.0746,1.18081 0.70848,1.80229 0.64013,0.61526 1.77744,0.61526 0.65876,0 1.27403,-0.16158 0.62148,-0.16159 1.23053,-0.48475 v 1.08137 q -0.61527,0.26102 -1.26161,0.39775 -0.64633,0.13672 -1.31132,0.13672 -1.66556,0 -2.64128,-0.96951 -0.96951,-0.9695 -0.96951,-2.62264 0,-1.70907 0.91979,-2.70965 0.926,-1.0068 2.49213,-1.0068 1.40454,0 2.21868,0.90736 0.82035,0.90115 0.82035,2.45485 z m -1.14352,-0.3356 q -0.0124,-0.93844 -0.52826,-1.49777 -0.50961,-0.55933 -1.35482,-0.55933 -0.95708,0 -1.53505,0.54069 -0.57177,0.54069 -0.65877,1.52262 z"
       id="text2"
       style="font-size:12.7279px;font-family:KacstNaskh;-inkscape-font-specification:KacstNaskh;stroke-width:0.257707;stroke-linecap:round;stroke-dasharray:0.257707, 0.773121"
       aria-label="Imagen no disponible" /></g></svg>
